<?xml version="1.0" encoding="utf-8"?>
<svg xmlns="http://www.w3.org/2000/svg" height="512pt" version="1.1" viewBox="0 0 512 512" width="512pt">
<path d="M 0.00 0.00 L 88.12 0.00 C 87.96 10.33 87.89 20.65 88.09 30.98 C 88.10 33.87 88.19 36.80 87.66 39.66 C 85.01 40.60 82.22 41.00 79.47 41.57 C 82.16 42.90 84.81 44.30 87.41 45.79 C 85.27 48.36 83.88 51.41 83.98 54.82 C 84.53 54.71 85.63 54.50 86.17 54.40 C 86.61 52.39 87.06 50.40 87.55 48.41 C 88.10 50.91 88.40 53.47 88.49 56.03 C 88.85 53.47 89.32 50.93 89.85 48.41 C 91.47 48.44 93.09 48.47 94.71 48.50 C 95.16 49.50 95.62 50.51 96.07 51.53 C 97.17 50.32 98.05 48.36 100.02 48.68 C 102.20 48.68 102.93 51.12 104.13 52.51 C 102.31 53.06 100.48 53.62 98.64 54.14 C 100.04 54.38 101.44 54.63 102.84 54.90 C 101.26 55.54 99.69 56.18 98.11 56.81 C 97.45 55.60 96.79 54.40 96.13 53.20 C 96.06 56.72 95.96 60.24 95.82 63.77 C 93.26 63.93 90.69 64.07 88.13 64.23 C 87.93 88.06 87.95 111.91 88.10 135.75 C 90.69 135.90 93.28 136.04 95.87 136.19 C 96.09 141.38 96.11 146.57 95.89 151.76 C 93.29 151.93 90.70 152.09 88.11 152.27 C 87.81 192.08 88.29 231.90 87.86 271.71 C 85.29 271.90 82.72 272.06 80.15 272.25 C 79.92 276.69 79.92 281.13 80.16 285.56 C 81.41 285.93 82.66 286.31 83.91 286.68 C 82.52 288.55 80.18 290.28 80.65 292.90 C 81.31 299.26 81.70 305.64 82.11 312.01 C 81.92 313.81 83.22 315.02 84.38 316.17 C 84.75 314.86 85.12 313.56 85.49 312.25 C 86.04 312.21 87.13 312.13 87.67 312.09 C 88.03 315.38 88.17 318.74 89.15 321.93 C 89.88 324.28 92.09 325.68 93.77 327.32 C 93.94 331.51 94.83 335.72 97.24 339.22 C 94.23 339.66 91.20 340.02 88.17 340.31 C 87.55 349.17 88.47 358.07 87.73 366.91 C 87.67 369.07 85.03 368.15 83.62 368.50 C 84.59 370.91 84.97 373.49 85.06 376.08 C 84.20 373.94 83.77 371.55 82.36 369.69 C 76.66 368.28 70.66 368.59 64.89 369.38 C 70.38 370.79 76.07 370.53 81.63 371.38 C 82.89 372.87 83.42 374.96 82.72 376.83 C 80.47 384.42 78.65 392.17 77.95 400.07 C 77.82 403.20 75.99 405.80 74.31 408.30 C 75.96 407.73 77.61 407.17 79.27 406.62 C 79.88 410.03 80.21 413.50 80.11 416.97 C 79.78 445.90 80.26 474.85 79.91 503.78 C 77.32 503.93 74.73 504.07 72.14 504.24 C 72.07 506.82 72.01 509.41 71.94 512.00 L 0.00 512.00 L 0.00 0.00 Z" fill="#e4eaf6" opacity="1.00" stroke="#e4eaf6" stroke-width="0.25"/>
<path d="M 88.12 0.00 L 180.02 0.00 C 179.87 25.33 180.01 50.66 179.98 75.99 C 180.03 79.81 179.49 83.73 180.39 87.48 C 181.62 88.66 183.07 89.58 184.43 90.59 C 181.43 90.75 178.42 90.87 175.41 90.92 C 177.80 91.44 180.20 91.90 182.57 92.49 L 182.61 93.14 C 180.43 93.18 178.25 93.21 176.08 93.25 C 175.90 102.27 175.30 111.34 175.77 120.35 C 177.70 120.76 179.68 120.77 181.65 120.86 C 182.29 118.34 183.11 115.86 184.11 113.46 C 186.27 115.71 188.01 118.37 190.35 120.46 C 192.41 120.87 194.52 120.81 196.61 120.91 C 196.69 120.28 196.84 119.02 196.92 118.39 C 197.77 119.31 198.61 120.24 199.45 121.18 C 195.86 121.84 192.23 122.27 188.59 122.53 C 192.21 123.38 195.74 124.62 198.84 126.70 C 197.70 126.88 196.55 127.07 195.41 127.25 C 195.94 130.01 196.76 132.77 196.61 135.61 C 195.57 136.83 194.27 137.80 193.02 138.81 C 190.94 138.77 188.23 137.75 186.67 139.66 C 185.55 141.59 185.76 143.98 185.33 146.12 C 185.09 147.56 184.77 149.00 184.46 150.43 C 182.83 150.70 181.20 150.97 179.58 151.25 C 179.76 153.82 179.93 156.40 179.97 158.99 C 179.99 196.27 179.83 233.55 180.02 270.83 C 182.61 272.99 184.27 275.91 184.29 279.35 C 178.53 283.36 173.27 288.05 168.14 292.82 C 165.24 295.00 161.62 294.95 158.23 294.30 C 157.56 294.72 156.90 295.14 156.23 295.57 C 156.02 294.81 155.80 294.06 155.58 293.31 C 155.05 294.18 154.50 295.05 153.95 295.91 C 153.84 293.71 153.72 291.52 153.57 289.32 C 151.73 289.74 149.88 290.13 148.04 290.55 C 148.90 289.10 149.73 287.65 150.55 286.19 C 145.61 287.42 142.29 291.51 139.94 295.77 C 139.45 294.51 137.93 293.26 138.88 291.87 C 140.39 288.47 142.48 285.01 141.72 281.12 C 141.38 276.48 137.12 273.84 134.23 270.74 C 132.21 268.83 131.50 266.07 130.14 263.73 C 128.09 262.11 125.46 261.49 123.06 260.54 C 120.05 263.08 116.91 265.46 113.93 268.03 C 111.55 271.81 112.38 276.38 112.24 280.60 C 112.17 288.06 110.79 295.72 113.00 303.01 C 115.48 309.66 110.48 315.91 107.07 321.21 C 104.72 311.94 102.90 302.55 101.20 293.14 C 100.70 289.89 98.35 287.36 95.31 286.22 C 91.41 285.69 87.41 287.99 86.52 291.95 C 86.06 295.77 87.32 299.52 88.18 303.19 C 89.39 309.12 89.83 315.32 92.06 320.99 C 95.04 324.79 100.77 322.78 104.96 323.21 C 115.32 322.92 125.69 323.22 136.06 323.04 C 139.08 323.04 142.20 322.82 145.10 323.85 C 127.92 324.00 110.73 323.66 93.56 323.90 C 93.62 325.04 93.69 326.18 93.77 327.32 C 92.09 325.68 89.88 324.28 89.15 321.93 C 88.17 318.74 88.03 315.38 87.67 312.09 C 87.13 312.13 86.04 312.21 85.49 312.25 C 85.12 313.56 84.75 314.86 84.38 316.17 C 83.22 315.02 81.92 313.81 82.11 312.01 C 81.70 305.64 81.31 299.26 80.65 292.90 C 80.18 290.28 82.52 288.55 83.91 286.68 C 82.66 286.31 81.41 285.93 80.16 285.56 C 79.92 281.13 79.92 276.69 80.15 272.25 C 82.72 272.06 85.29 271.90 87.86 271.71 C 88.29 231.90 87.81 192.08 88.11 152.27 C 90.70 152.09 93.29 151.93 95.89 151.76 C 96.11 146.57 96.09 141.38 95.87 136.19 C 93.28 136.04 90.69 135.90 88.10 135.75 C 87.95 111.91 87.93 88.06 88.13 64.23 C 90.69 64.07 93.26 63.93 95.82 63.77 C 95.96 60.24 96.06 56.72 96.13 53.20 C 96.79 54.40 97.45 55.60 98.11 56.81 C 99.69 56.18 101.26 55.54 102.84 54.90 C 101.44 54.63 100.04 54.38 98.64 54.14 C 100.48 53.62 102.31 53.06 104.13 52.51 C 102.93 51.12 102.20 48.68 100.02 48.68 C 98.05 48.36 97.17 50.32 96.07 51.53 C 95.62 50.51 95.16 49.50 94.71 48.50 C 93.09 48.47 91.47 48.44 89.85 48.41 C 89.32 50.93 88.85 53.47 88.49 56.03 C 88.40 53.47 88.10 50.91 87.55 48.41 C 87.06 50.40 86.61 52.39 86.17 54.40 C 85.63 54.50 84.53 54.71 83.98 54.82 C 83.88 51.41 85.27 48.36 87.41 45.79 C 84.81 44.30 82.16 42.90 79.47 41.57 C 82.22 41.00 85.01 40.60 87.66 39.66 C 88.19 36.80 88.10 33.87 88.09 30.98 C 87.89 20.65 87.96 10.33 88.12 0.00 Z" fill="#dce3f2" opacity="1.00" stroke="#dce3f2" stroke-width="0.25"/>
<path d="M 180.02 0.00 L 224.05 0.00 C 224.02 7.89 223.83 15.79 224.16 23.68 C 226.08 23.89 228.01 24.10 229.94 24.31 C 229.95 26.44 229.95 28.58 229.95 30.72 C 228.02 31.24 226.07 31.69 224.14 32.21 C 223.59 48.72 224.84 65.29 223.40 81.75 C 224.13 82.81 224.87 83.87 225.60 84.94 C 224.66 87.47 223.79 90.02 223.01 92.61 C 224.45 94.83 226.22 97.12 226.09 99.93 C 226.22 105.00 225.84 110.10 226.44 115.17 C 227.42 107.89 226.40 100.53 227.18 93.24 L 228.23 93.07 C 228.34 102.30 228.26 111.52 228.29 120.74 C 230.49 120.73 232.69 120.72 234.90 120.70 C 235.05 111.34 235.21 101.96 234.71 92.61 C 235.15 92.60 236.02 92.57 236.45 92.55 C 235.61 102.92 236.72 113.35 235.84 123.70 C 233.29 123.90 230.74 124.08 228.20 124.29 C 228.19 124.55 228.17 125.06 228.15 125.32 C 230.56 125.51 232.95 125.91 235.28 126.56 C 230.92 127.08 226.54 127.21 222.16 127.35 C 222.08 128.55 222.01 129.76 221.94 130.96 C 224.67 134.04 227.75 136.90 231.64 138.44 C 231.31 137.88 230.65 136.74 230.32 136.17 C 233.20 135.79 236.10 135.63 239.00 135.91 C 237.62 136.66 236.23 137.39 234.86 138.15 C 233.96 138.47 233.51 139.09 233.50 140.03 C 233.11 143.19 233.34 146.39 233.43 149.57 C 233.82 150.01 234.59 150.90 234.97 151.34 C 234.72 152.45 234.45 153.56 234.16 154.67 C 232.02 152.59 230.74 149.91 229.49 147.25 C 227.09 147.85 224.87 149.00 222.66 150.07 C 224.53 155.08 224.05 160.49 224.08 165.74 C 226.95 165.91 229.82 166.12 232.67 166.52 C 225.83 170.30 217.40 165.83 210.30 169.22 C 207.09 169.48 203.87 169.53 200.66 169.55 C 199.67 170.59 198.68 171.64 197.67 172.65 C 196.41 173.87 195.08 175.02 193.79 176.20 C 189.80 179.69 191.38 186.04 194.21 189.78 C 196.64 193.16 200.86 194.81 204.94 194.69 C 213.93 194.61 222.91 194.52 231.90 194.66 C 232.39 195.19 233.37 196.25 233.86 196.78 C 228.50 196.99 223.12 196.85 217.78 197.41 C 230.20 199.10 242.83 196.99 255.26 198.59 C 248.87 199.39 242.43 198.82 236.02 198.89 C 232.24 198.86 228.57 200.43 224.78 199.81 C 224.91 200.28 225.16 201.23 225.29 201.70 C 227.51 201.89 229.73 202.07 231.95 202.25 C 231.94 202.86 231.91 204.10 231.90 204.72 C 227.95 205.10 224.02 205.65 220.12 206.33 C 219.93 217.39 219.84 228.46 220.22 239.51 C 221.42 239.81 222.63 240.11 223.84 240.41 C 224.11 245.46 224.10 250.51 223.82 255.56 C 222.60 255.85 221.38 256.16 220.17 256.46 C 219.87 264.14 219.96 271.83 220.15 279.52 C 221.38 279.81 222.61 280.10 223.84 280.40 C 224.14 285.44 224.13 290.49 223.84 295.53 C 222.63 295.81 221.42 296.10 220.21 296.40 C 220.08 300.60 219.69 304.82 220.00 309.03 C 219.76 311.39 222.50 311.95 223.80 313.39 C 224.20 315.41 224.01 317.48 224.01 319.53 C 222.69 319.82 221.37 320.12 220.06 320.42 C 220.09 322.76 220.11 325.10 220.14 327.45 C 221.40 327.79 222.66 328.14 223.92 328.49 C 223.92 330.83 223.93 333.18 223.93 335.54 C 222.67 335.84 221.41 336.15 220.14 336.47 C 220.01 340.30 219.96 344.14 220.03 347.98 C 220.25 362.27 219.17 376.64 221.21 390.85 C 222.12 391.62 223.04 392.40 223.96 393.18 C 224.00 395.05 224.04 396.93 224.08 398.82 C 223.06 399.59 222.04 400.38 221.03 401.17 C 221.12 406.00 221.15 410.85 220.56 415.67 C 219.61 423.58 219.95 431.58 220.16 439.53 C 221.37 439.84 222.58 440.15 223.80 440.48 C 224.11 445.50 224.12 450.54 223.85 455.58 C 222.62 455.86 221.39 456.16 220.17 456.46 C 219.78 474.97 220.13 493.49 220.02 512.00 L 160.00 512.00 C 159.92 477.47 160.15 442.94 159.87 408.41 C 158.61 408.09 157.36 407.78 156.11 407.47 C 159.87 406.90 163.58 405.93 166.89 404.02 C 168.19 404.45 169.54 404.76 170.92 404.89 C 171.84 402.64 170.59 400.32 170.18 398.10 C 169.68 398.21 168.68 398.43 168.19 398.54 C 167.96 398.20 167.52 397.53 167.30 397.19 C 167.97 397.21 169.31 397.23 169.98 397.24 C 169.16 395.77 168.34 394.32 167.51 392.88 C 165.97 390.59 166.21 387.80 166.60 385.21 C 168.11 382.96 168.63 380.25 169.15 377.64 C 169.99 379.79 170.83 381.95 171.51 384.17 C 172.87 388.22 172.72 392.97 175.34 396.47 C 178.07 397.47 181.26 395.96 184.11 395.60 C 188.07 394.45 192.51 394.49 196.07 392.23 C 192.57 388.39 187.48 386.73 183.27 383.85 C 182.90 368.49 180.18 353.32 178.99 338.01 C 178.66 333.33 177.74 328.22 174.08 324.93 C 171.44 322.34 167.41 322.80 164.03 322.99 C 158.62 323.65 153.16 323.47 147.75 323.98 C 147.32 323.08 146.88 322.20 146.40 321.35 C 142.93 319.47 138.80 320.19 135.01 319.92 C 135.49 314.25 136.07 308.54 137.81 303.10 C 139.34 302.57 140.89 302.09 142.45 301.64 C 147.56 302.79 152.81 303.24 157.94 304.32 C 161.00 305.04 164.10 304.10 166.64 302.36 C 168.20 301.02 169.69 299.61 171.16 298.18 C 170.77 299.82 173.06 301.07 174.17 299.76 C 176.59 297.97 181.16 294.73 178.63 291.40 C 181.77 289.11 184.78 286.62 187.60 283.95 C 186.48 282.42 185.37 280.90 184.29 279.35 C 184.27 275.91 182.61 272.99 180.02 270.83 C 179.83 233.55 179.99 196.27 179.97 158.99 C 179.93 156.40 179.76 153.82 179.58 151.25 C 181.20 150.97 182.83 150.70 184.46 150.43 C 184.77 149.00 185.09 147.56 185.33 146.12 C 186.89 146.56 188.43 147.07 190.04 147.34 C 192.82 147.69 193.37 144.40 194.95 142.84 C 196.90 143.04 198.69 143.94 200.49 144.68 C 198.52 144.88 196.55 145.06 194.59 145.26 C 196.56 147.56 199.52 147.33 202.26 147.11 C 202.59 143.83 200.20 141.87 197.72 140.30 C 198.92 140.58 200.12 140.86 201.33 141.14 C 201.48 140.56 201.79 139.39 201.95 138.80 C 200.43 138.65 198.91 138.42 197.39 138.48 C 196.24 139.42 195.29 140.56 194.29 141.65 C 193.86 140.70 193.44 139.75 193.02 138.81 C 194.27 137.80 195.57 136.83 196.61 135.61 C 196.76 132.77 195.94 130.01 195.41 127.25 C 196.55 127.07 197.70 126.88 198.84 126.70 C 195.74 124.62 192.21 123.38 188.59 122.53 C 192.23 122.27 195.86 121.84 199.45 121.18 C 198.61 120.24 197.77 119.31 196.92 118.39 C 194.42 115.52 191.15 112.95 190.13 109.14 C 191.91 105.97 194.86 103.71 197.19 100.97 C 194.79 100.84 192.37 100.50 189.98 100.87 C 187.21 102.53 185.22 105.15 182.88 107.32 C 182.52 102.60 182.64 97.87 182.61 93.14 L 182.57 92.49 C 180.20 91.90 177.80 91.44 175.41 90.92 C 178.42 90.87 181.43 90.75 184.43 90.59 C 183.07 89.58 181.62 88.66 180.39 87.48 C 179.49 83.73 180.03 79.81 179.98 75.99 C 180.01 50.66 179.87 25.33 180.02 0.00 Z" fill="#d5def1" opacity="1.00" stroke="#d5def1" stroke-width="0.25"/>
<path d="M 224.05 0.00 L 320.00 0.00 C 319.92 15.91 320.07 31.82 319.88 47.72 C 317.30 47.90 314.72 48.04 312.14 48.22 C 312.02 53.24 311.29 58.39 312.75 63.29 C 313.54 66.12 314.06 69.01 314.43 71.93 C 315.53 71.92 316.64 71.90 317.75 71.89 C 317.93 69.06 318.14 66.23 318.54 63.42 C 320.33 65.53 319.98 68.41 320.02 70.97 C 319.89 76.58 319.90 82.19 320.19 87.80 C 322.74 87.95 325.29 88.09 327.85 88.25 C 328.30 91.22 326.77 95.52 329.62 97.48 C 333.65 98.20 337.81 97.59 341.86 98.33 C 340.84 99.36 339.82 100.37 338.80 101.40 C 340.22 101.44 341.64 101.48 343.06 101.51 C 342.37 102.40 341.67 103.29 340.98 104.17 C 336.91 101.08 331.35 98.76 326.46 101.48 C 319.95 104.64 319.09 114.79 324.89 119.03 C 329.50 121.99 335.44 121.42 340.20 119.13 C 339.96 119.67 339.48 120.75 339.24 121.29 C 335.72 122.11 332.26 123.17 328.93 124.58 C 330.24 124.84 331.56 125.09 332.88 125.33 C 332.07 125.63 331.26 125.93 330.45 126.23 C 330.85 126.78 331.25 127.34 331.65 127.89 C 330.44 128.03 329.24 128.16 328.04 128.30 C 328.03 130.76 328.03 133.22 328.03 135.69 C 329.19 135.57 330.37 135.46 331.54 135.34 C 331.51 136.43 331.47 137.52 331.47 138.61 C 328.99 138.54 326.51 138.49 324.03 138.43 C 324.02 141.52 324.07 144.60 324.42 147.67 C 325.68 145.67 326.01 143.31 326.36 141.03 C 327.23 140.72 328.11 140.41 328.98 140.10 C 329.02 140.68 329.08 141.84 329.12 142.42 C 328.10 145.08 327.62 147.93 326.53 150.57 C 324.77 152.55 321.86 151.38 319.58 151.40 C 320.25 159.42 320.06 167.47 319.84 175.50 C 318.76 175.85 317.69 176.22 316.63 176.61 C 316.32 177.34 316.03 178.07 315.71 178.80 C 314.21 177.46 312.73 176.11 311.21 174.80 C 311.13 175.66 310.95 177.38 310.87 178.24 C 309.17 175.50 307.07 172.88 304.05 171.52 C 298.93 168.34 292.71 169.76 287.03 169.54 C 261.46 169.32 235.87 169.86 210.30 169.22 C 217.40 165.83 225.83 170.30 232.67 166.52 C 229.82 166.12 226.95 165.91 224.08 165.74 C 224.05 160.49 224.53 155.08 222.66 150.07 C 224.87 149.00 227.09 147.85 229.49 147.25 C 230.74 149.91 232.02 152.59 234.16 154.67 C 234.45 153.56 234.72 152.45 234.97 151.34 C 235.22 150.08 235.42 148.82 235.63 147.57 C 237.49 147.25 239.68 147.51 241.22 146.22 C 242.38 144.09 242.63 140.98 240.88 139.10 C 239.05 138.12 236.87 138.31 234.86 138.15 C 236.23 137.39 237.62 136.66 239.00 135.91 C 236.10 135.63 233.20 135.79 230.32 136.17 C 230.65 136.74 231.31 137.88 231.64 138.44 C 227.75 136.90 224.67 134.04 221.94 130.96 C 222.01 129.76 222.08 128.55 222.16 127.35 C 226.54 127.21 230.92 127.08 235.28 126.56 C 232.95 125.91 230.56 125.51 228.15 125.32 C 228.17 125.06 228.19 124.55 228.20 124.29 C 230.74 124.08 233.29 123.90 235.84 123.70 C 236.72 113.35 235.61 102.92 236.45 92.55 C 236.02 92.57 235.15 92.60 234.71 92.61 C 232.54 92.69 230.38 92.82 228.23 93.07 L 227.18 93.24 C 226.40 100.53 227.42 107.89 226.44 115.17 C 225.84 110.10 226.22 105.00 226.09 99.93 C 226.22 97.12 224.45 94.83 223.01 92.61 C 223.79 90.02 224.66 87.47 225.60 84.94 C 224.87 83.87 224.13 82.81 223.40 81.75 C 224.84 65.29 223.59 48.72 224.14 32.21 C 226.07 31.69 228.02 31.24 229.95 30.72 C 229.95 28.58 229.95 26.44 229.94 24.31 C 228.01 24.10 226.08 23.89 224.16 23.68 C 223.83 15.79 224.02 7.89 224.05 0.00 Z" fill="#cddaf1" opacity="1.00" stroke="#cddaf1" stroke-width="0.25"/>
<path d="M 320.00 0.00 L 370.36 0.00 C 370.26 5.44 367.91 10.49 367.66 15.91 C 363.79 16.05 359.92 16.14 356.06 16.19 C 356.08 18.63 356.11 21.07 356.14 23.52 C 357.43 23.82 358.73 24.12 360.03 24.42 C 360.00 26.81 359.98 29.20 359.96 31.60 C 358.71 31.90 357.46 32.21 356.22 32.52 C 356.25 39.27 354.45 46.93 359.06 52.67 C 357.64 54.53 355.81 56.39 356.08 58.94 C 355.97 65.87 356.01 72.82 356.22 79.76 C 360.10 79.86 363.98 79.97 367.87 80.11 C 368.42 91.05 367.84 102.01 368.06 112.96 C 368.23 117.84 367.48 122.80 368.43 127.63 C 369.56 129.07 371.91 129.07 373.55 129.84 C 373.73 131.11 373.91 132.39 374.09 133.67 C 371.95 132.69 369.78 131.76 367.57 130.93 C 370.88 137.19 380.05 138.19 385.51 134.20 C 386.06 134.94 386.62 135.68 387.19 136.43 C 385.20 136.96 383.22 137.48 381.25 138.06 C 380.76 140.82 380.60 143.63 380.46 146.43 C 380.99 146.53 382.06 146.73 382.59 146.83 C 382.69 144.76 382.78 142.70 382.89 140.63 C 383.98 140.61 385.08 140.61 386.19 140.61 C 386.28 142.69 386.37 144.76 386.47 146.84 C 386.96 146.79 387.94 146.69 388.43 146.64 C 388.56 146.28 388.82 145.56 388.95 145.20 C 390.05 144.84 391.15 144.50 392.27 144.19 C 391.89 145.83 391.88 147.64 391.03 149.13 C 389.23 150.45 387.01 150.97 384.96 151.74 C 384.40 150.50 384.60 148.55 383.00 148.12 C 380.77 148.68 378.76 149.84 376.72 150.86 C 377.77 152.30 378.83 153.73 379.89 155.17 C 376.41 157.26 370.42 157.90 370.17 162.90 C 369.31 167.23 367.80 171.50 368.03 175.98 C 368.28 186.99 367.94 198.01 368.07 209.02 C 368.15 214.05 367.99 219.08 367.57 224.09 C 369.69 224.18 371.82 224.21 373.95 224.27 C 371.07 225.63 368.20 227.05 365.69 229.02 C 363.26 231.06 362.99 234.11 363.53 237.05 C 364.82 237.38 366.12 237.71 367.41 238.09 C 367.47 238.32 367.58 238.79 367.64 239.02 C 362.87 242.08 362.69 248.65 364.18 253.54 C 364.78 256.03 367.92 255.83 369.83 256.78 C 370.28 259.50 370.70 262.22 371.12 264.94 C 366.78 267.03 361.89 269.82 360.96 275.01 C 358.38 285.33 359.99 296.09 359.44 306.60 C 356.42 306.53 353.39 306.58 350.37 306.73 C 348.39 306.81 346.41 306.89 344.43 306.89 C 342.69 305.99 341.00 304.81 339.00 304.56 C 337.46 305.13 336.03 305.94 334.60 306.72 C 329.28 307.31 323.60 305.85 318.59 308.15 C 322.39 308.78 326.25 308.87 330.09 309.00 C 333.75 311.94 338.38 313.33 343.04 313.39 C 348.57 313.44 354.05 314.53 359.59 314.44 C 359.90 317.80 360.79 321.07 361.89 324.26 C 361.38 324.31 360.37 324.41 359.87 324.45 C 349.61 325.15 339.34 325.80 329.08 326.42 C 326.56 326.62 323.73 326.90 321.90 328.84 C 320.02 330.64 319.75 333.37 319.43 335.81 C 317.55 353.29 314.95 370.68 312.83 388.13 C 312.58 389.57 312.48 391.12 311.79 392.45 C 307.78 393.89 303.32 394.52 300.02 397.47 C 299.74 397.67 299.18 398.06 298.90 398.26 C 300.62 399.16 302.34 400.06 304.05 400.98 C 300.39 401.07 296.73 400.77 293.17 399.92 C 292.89 392.28 292.06 384.66 292.95 377.03 C 292.90 320.69 293.08 264.35 292.88 208.01 C 293.02 204.53 291.91 199.97 295.70 198.01 C 293.06 197.96 290.43 197.79 287.80 197.61 C 290.97 197.25 294.30 197.06 297.02 195.18 C 302.09 193.89 307.09 191.41 309.93 186.83 C 311.78 184.32 310.97 181.10 310.87 178.24 C 310.95 177.38 311.13 175.66 311.21 174.80 C 312.73 176.11 314.21 177.46 315.71 178.80 C 316.03 178.07 316.32 177.34 316.63 176.61 C 317.69 176.22 318.76 175.85 319.84 175.50 C 320.06 167.47 320.25 159.42 319.58 151.40 C 321.86 151.38 324.77 152.55 326.53 150.57 C 327.62 147.93 328.10 145.08 329.12 142.42 C 329.20 143.90 329.29 145.39 329.38 146.89 C 330.02 146.94 331.29 147.04 331.92 147.09 C 331.72 144.27 331.49 141.44 331.47 138.61 C 331.47 137.52 331.51 136.43 331.54 135.34 C 330.37 135.46 329.19 135.57 328.03 135.69 C 328.03 133.22 328.03 130.76 328.04 128.30 C 329.24 128.16 330.44 128.03 331.65 127.89 C 331.25 127.34 330.85 126.78 330.45 126.23 C 331.26 125.93 332.07 125.63 332.88 125.33 C 331.56 125.09 330.24 124.84 328.93 124.58 C 332.26 123.17 335.72 122.11 339.24 121.29 C 339.48 120.75 339.96 119.67 340.20 119.13 C 340.36 118.76 340.68 118.01 340.84 117.64 C 339.96 116.64 339.07 115.63 338.00 114.84 C 336.02 115.04 334.08 115.61 332.09 115.75 C 330.11 115.89 328.84 114.07 327.43 113.00 C 332.59 112.47 337.78 112.62 342.95 112.68 C 342.42 109.82 341.76 106.98 340.98 104.17 C 341.67 103.29 342.37 102.40 343.06 101.51 C 341.64 101.48 340.22 101.44 338.80 101.40 C 339.82 100.37 340.84 99.36 341.86 98.33 C 337.81 97.59 333.65 98.20 329.62 97.48 C 326.77 95.52 328.30 91.22 327.85 88.25 C 325.29 88.09 322.74 87.95 320.19 87.80 C 319.90 82.19 319.89 76.58 320.02 70.97 C 319.98 68.41 320.33 65.53 318.54 63.42 C 318.14 66.23 317.93 69.06 317.75 71.89 C 316.64 71.90 315.53 71.92 314.43 71.93 C 314.06 69.01 313.54 66.12 312.75 63.29 C 311.29 58.39 312.02 53.24 312.14 48.22 C 314.72 48.04 317.30 47.90 319.88 47.72 C 320.07 31.82 319.92 15.91 320.00 0.00 Z" fill="#c7d5f1" opacity="1.00" stroke="#c7d5f1" stroke-width="0.25"/>
<path d="M 370.36 0.00 L 476.92 0.00 C 476.90 9.95 477.04 19.91 476.94 29.86 C 476.04 30.79 475.15 31.72 474.27 32.65 C 475.56 34.26 476.71 36.02 476.92 38.12 C 475.58 37.55 474.27 36.97 472.94 36.39 C 473.78 39.47 474.81 42.65 477.55 44.58 C 477.83 42.42 478.08 40.25 478.33 38.08 C 478.96 38.19 480.22 38.39 480.85 38.50 C 480.07 42.06 478.64 45.43 477.82 48.98 C 477.88 51.11 479.00 53.02 479.74 54.98 C 477.98 59.31 480.25 63.65 480.13 68.03 C 480.19 71.14 476.62 72.86 476.79 75.98 C 476.63 78.42 478.83 79.96 479.75 82.02 C 480.02 83.58 480.06 85.18 480.17 86.77 C 479.09 87.54 478.03 88.31 476.98 89.09 C 476.78 96.67 477.14 104.24 476.91 111.82 C 472.65 111.89 468.40 112.00 464.15 112.17 C 463.89 117.41 463.86 122.66 464.11 127.90 C 469.41 127.99 474.70 128.03 480.00 128.18 C 479.98 130.12 480.07 132.07 479.78 134.00 C 478.76 135.97 476.72 137.54 476.91 139.96 C 476.77 144.56 476.03 149.76 479.43 153.44 C 480.78 157.70 479.78 162.38 479.88 166.80 C 478.91 167.58 477.96 168.35 477.01 169.13 C 476.74 181.94 477.25 194.75 476.83 207.55 C 475.58 207.85 474.34 208.16 473.10 208.47 C 472.55 227.07 473.63 245.72 472.61 264.30 C 471.69 258.94 472.04 253.49 471.90 248.08 C 469.29 248.05 466.69 248.02 464.09 247.99 C 463.89 261.28 463.83 274.58 464.08 287.87 C 468.73 287.97 473.38 288.06 478.03 288.14 C 477.84 292.96 477.23 297.74 476.88 302.55 C 477.76 303.70 479.81 304.40 479.84 305.99 C 478.92 308.32 477.25 310.26 475.90 312.36 C 475.21 313.11 474.54 313.86 473.87 314.63 C 475.28 314.51 476.69 314.39 478.11 314.28 C 475.11 316.62 472.82 321.37 468.49 320.96 C 467.62 323.28 466.65 325.57 465.54 327.79 C 465.83 328.14 466.42 328.85 466.71 329.20 C 463.57 333.94 462.41 339.55 461.31 345.03 C 459.86 347.96 458.56 350.96 457.43 354.03 C 456.26 351.08 454.85 348.22 453.85 345.22 C 452.84 341.76 452.60 338.11 451.23 334.77 C 448.12 327.22 442.00 319.66 433.29 319.01 C 433.56 325.74 435.30 332.80 440.22 337.71 C 443.27 341.03 447.40 342.98 451.42 344.86 C 453.05 348.47 455.26 351.96 455.72 355.98 C 456.11 359.46 456.04 362.98 455.99 366.48 L 455.95 366.52 C 450.09 366.36 444.24 366.40 438.38 366.45 C 438.38 369.05 438.40 371.65 438.42 374.25 C 438.76 373.53 439.10 372.81 439.44 372.09 C 439.13 383.01 443.89 393.33 443.75 404.21 C 451.45 406.11 459.40 405.27 467.24 405.37 C 466.80 406.16 466.29 406.92 465.73 407.64 C 458.93 408.91 451.84 406.81 445.15 409.01 C 451.17 410.69 457.48 409.68 463.63 410.36 C 467.74 410.90 470.89 407.72 474.25 405.91 C 473.78 410.41 471.41 415.55 466.46 416.32 C 465.94 414.70 465.39 413.09 464.84 411.49 C 464.02 414.59 463.77 417.80 463.91 421.01 C 464.14 429.95 463.80 438.89 464.09 447.83 C 467.00 447.94 469.90 448.06 472.81 448.18 C 473.11 453.37 473.14 458.58 472.90 463.78 C 469.97 463.92 467.04 464.06 464.11 464.20 C 463.79 480.13 464.08 496.07 464.00 512.00 L 400.15 512.00 C 400.02 509.42 399.90 506.84 399.78 504.27 C 397.23 504.09 394.69 503.94 392.15 503.77 C 391.90 498.54 391.92 493.30 392.14 488.08 C 394.68 488.04 397.23 488.01 399.78 487.99 C 399.93 490.64 400.06 493.30 400.21 495.96 C 402.79 495.96 405.37 495.96 407.95 495.96 C 408.08 483.02 407.89 470.09 407.96 457.15 C 408.95 456.38 409.95 455.61 410.94 454.84 C 411.00 450.89 411.28 446.93 410.91 443.00 C 411.00 440.97 409.11 439.84 407.94 438.50 C 407.97 437.02 407.89 435.52 408.20 434.07 C 408.99 432.32 410.58 430.94 410.87 429.00 C 411.76 422.12 410.05 415.29 409.99 408.42 C 412.02 408.06 414.05 407.68 416.08 407.29 C 410.22 406.74 404.39 408.49 398.55 407.48 C 398.05 408.79 397.55 410.10 397.06 411.42 C 396.63 411.01 395.78 410.18 395.35 409.76 C 395.33 409.04 395.31 408.32 395.30 407.61 C 393.63 406.90 391.98 406.19 390.33 405.46 C 390.87 400.16 388.66 395.23 387.75 390.13 C 386.05 381.36 383.74 372.72 382.04 363.95 C 380.70 358.22 379.84 352.36 377.88 346.79 C 384.63 346.58 391.41 347.11 398.12 346.32 C 401.62 345.02 404.30 341.79 404.77 338.05 C 406.96 324.89 408.88 311.67 411.23 298.53 C 411.80 294.97 412.30 290.47 408.95 288.07 C 406.56 285.75 403.10 286.41 400.14 286.70 C 399.42 286.74 397.98 286.82 397.26 286.85 C 395.78 280.41 394.77 273.53 390.91 267.99 C 388.47 264.87 384.82 263.08 381.43 261.19 C 381.51 259.47 381.55 257.75 381.79 256.05 C 384.32 251.91 386.31 247.02 385.33 242.08 C 384.40 238.74 383.19 235.47 382.46 232.07 C 379.84 230.72 376.95 230.03 374.05 230.83 C 371.09 231.68 368.41 229.83 365.69 229.02 C 368.20 227.05 371.07 225.63 373.95 224.27 C 371.82 224.21 369.69 224.18 367.57 224.09 C 367.99 219.08 368.15 214.05 368.07 209.02 C 367.94 198.01 368.28 186.99 368.03 175.98 C 367.80 171.50 369.31 167.23 370.17 162.90 C 370.42 157.90 376.41 157.26 379.89 155.17 C 378.83 153.73 377.77 152.30 376.72 150.86 C 378.76 149.84 380.77 148.68 383.00 148.12 C 384.60 148.55 384.40 150.50 384.96 151.74 C 387.01 150.97 389.23 150.45 391.03 149.13 C 391.88 147.64 391.89 145.83 392.27 144.19 C 391.15 144.50 390.05 144.84 388.95 145.20 C 388.72 143.20 388.82 141.04 387.83 139.24 C 385.92 138.03 383.42 138.38 381.25 138.06 C 383.22 137.48 385.20 136.96 387.19 136.43 C 386.62 135.68 386.06 134.94 385.51 134.20 C 380.05 138.19 370.88 137.19 367.57 130.93 C 369.78 131.76 371.95 132.69 374.09 133.67 C 373.91 132.39 373.73 131.11 373.55 129.84 C 371.91 129.07 369.56 129.07 368.43 127.63 C 367.48 122.80 368.23 117.84 368.06 112.96 C 367.84 102.01 368.42 91.05 367.87 80.11 C 363.98 79.97 360.10 79.86 356.22 79.76 C 356.01 72.82 355.97 65.87 356.08 58.94 C 355.81 56.39 357.64 54.53 359.06 52.67 C 354.45 46.93 356.25 39.27 356.22 32.52 C 357.46 32.21 358.71 31.90 359.96 31.60 C 359.98 29.20 360.00 26.81 360.03 24.42 C 358.73 24.12 357.43 23.82 356.14 23.52 C 356.11 21.07 356.08 18.63 356.06 16.19 C 359.92 16.14 363.79 16.05 367.66 15.91 C 367.91 10.49 370.26 5.44 370.36 0.00 Z" fill="#becef1" opacity="1.00" stroke="#becef1" stroke-width="0.25"/>
<path d="M 476.92 0.00 L 512.00 0.00 L 512.00 512.00 L 464.00 512.00 C 464.08 496.07 463.79 480.13 464.11 464.20 C 467.04 464.06 469.97 463.92 472.90 463.78 C 473.14 458.58 473.11 453.37 472.81 448.18 C 469.90 448.06 467.00 447.94 464.09 447.83 C 463.80 438.89 464.14 429.95 463.91 421.01 C 463.77 417.80 464.02 414.59 464.84 411.49 C 465.39 413.09 465.94 414.70 466.46 416.32 C 471.41 415.55 473.78 410.41 474.25 405.91 C 470.89 407.72 467.74 410.90 463.63 410.36 C 457.48 409.68 451.17 410.69 445.15 409.01 C 451.84 406.81 458.93 408.91 465.73 407.64 C 466.29 406.92 466.80 406.16 467.24 405.37 C 468.27 392.26 472.98 379.64 472.80 366.42 C 467.18 366.38 461.56 366.37 455.95 366.52 L 455.99 366.48 C 456.40 366.10 457.21 365.34 457.62 364.96 C 458.27 361.62 457.99 358.14 458.96 354.86 C 460.00 351.19 462.02 347.92 463.90 344.64 C 469.41 344.05 473.78 340.04 476.95 335.78 C 480.47 330.96 481.44 324.88 481.64 319.06 C 475.51 320.24 470.18 324.07 466.71 329.20 C 466.42 328.85 465.83 328.14 465.54 327.79 C 466.65 325.57 467.62 323.28 468.49 320.96 C 472.82 321.37 475.11 316.62 478.11 314.28 C 476.69 314.39 475.28 314.51 473.87 314.63 C 474.54 313.86 475.21 313.11 475.90 312.36 C 477.25 310.26 478.92 308.32 479.84 305.99 C 479.81 304.40 477.76 303.70 476.88 302.55 C 477.23 297.74 477.84 292.96 478.03 288.14 C 473.38 288.06 468.73 287.97 464.08 287.87 C 463.83 274.58 463.89 261.28 464.09 247.99 C 466.69 248.02 469.29 248.05 471.90 248.08 C 472.04 253.49 471.69 258.94 472.61 264.30 C 473.63 245.72 472.55 227.07 473.10 208.47 C 474.34 208.16 475.58 207.85 476.83 207.55 C 477.25 194.75 476.74 181.94 477.01 169.13 C 477.96 168.35 478.91 167.58 479.88 166.80 C 479.78 162.38 480.78 157.70 479.43 153.44 C 476.03 149.76 476.77 144.56 476.91 139.96 C 476.72 137.54 478.76 135.97 479.78 134.00 C 480.07 132.07 479.98 130.12 480.00 128.18 C 474.70 128.03 469.41 127.99 464.11 127.90 C 463.86 122.66 463.89 117.41 464.15 112.17 C 468.40 112.00 472.65 111.89 476.91 111.82 C 477.14 104.24 476.78 96.67 476.98 89.09 C 478.03 88.31 479.09 87.54 480.17 86.77 C 480.06 85.18 480.02 83.58 479.75 82.02 C 478.83 79.96 476.63 78.42 476.79 75.98 C 476.62 72.86 480.19 71.14 480.13 68.03 C 480.25 63.65 477.98 59.31 479.74 54.98 C 479.00 53.02 477.88 51.11 477.82 48.98 C 478.64 45.43 480.07 42.06 480.85 38.50 C 480.22 38.39 478.96 38.19 478.33 38.08 C 478.08 40.25 477.83 42.42 477.55 44.58 C 474.81 42.65 473.78 39.47 472.94 36.39 C 474.27 36.97 475.58 37.55 476.92 38.12 C 476.71 36.02 475.56 34.26 474.27 32.65 C 475.15 31.72 476.04 30.79 476.94 29.86 C 477.04 19.91 476.90 9.95 476.92 0.00 Z" fill="#b8caf1" opacity="1.00" stroke="#b8caf1" stroke-width="0.25"/>
<path d="M 33.54 56.58 C 30.91 51.44 33.62 45.40 38.08 42.33 C 40.89 42.11 43.74 42.64 46.34 43.71 C 51.61 45.75 51.59 53.38 48.80 57.43 C 48.65 54.26 48.67 51.07 48.11 47.93 C 47.88 47.43 47.41 46.43 47.18 45.93 C 46.68 46.98 46.21 48.04 45.78 49.11 C 44.55 50.00 43.33 50.90 42.11 51.80 C 41.37 49.91 40.59 48.02 39.80 46.15 C 39.15 46.17 37.86 46.19 37.21 46.21 C 35.88 49.62 34.63 53.07 33.54 56.58 Z" fill="#fafdfc" opacity="1.00" stroke="#fafdfc" stroke-width="0.25"/>
<path d="M 415.91 47.66 C 417.05 45.51 418.92 43.89 420.82 42.42 C 433.54 42.10 446.28 42.35 459.01 42.24 C 462.27 42.24 466.04 42.01 468.48 44.62 C 471.71 47.60 470.42 52.41 470.54 56.29 C 468.11 59.08 464.98 61.86 461.01 61.56 C 449.67 61.55 438.33 61.53 427.00 61.56 C 424.47 61.64 422.03 61.01 419.61 60.40 C 419.45 60.20 419.12 59.79 418.96 59.58 C 415.79 56.45 415.17 51.88 415.91 47.66 Z" fill="#f8ae09" opacity="1.00" stroke="#f8ae09" stroke-width="0.25"/>
<path d="M 37.21 46.21 C 37.86 46.19 39.15 46.17 39.80 46.15 C 40.59 48.02 41.37 49.91 42.11 51.80 C 42.55 53.00 42.97 54.20 43.35 55.42 L 43.33 56.62 C 41.36 55.02 39.11 53.92 36.54 53.89 C 36.32 54.33 35.90 55.22 35.69 55.66 C 35.15 55.89 34.08 56.35 33.54 56.58 C 34.63 53.07 35.88 49.62 37.21 46.21 Z" fill="#54a5a6" opacity="1.00" stroke="#54a5a6" stroke-width="0.25"/>
<path d="M 45.78 49.11 C 46.21 48.04 46.68 46.98 47.18 45.93 C 47.41 46.43 47.88 47.43 48.11 47.93 C 48.28 51.12 47.94 54.30 47.55 57.46 C 46.69 54.74 46.00 51.96 45.78 49.11 Z" fill="#e4c588" opacity="1.00" stroke="#e4c588" stroke-width="0.25"/>
<path d="M 38.95 52.32 C 36.68 52.80 37.17 48.90 38.71 48.54 C 39.88 49.27 40.52 51.64 38.95 52.32 Z" fill="#9ceef5" opacity="1.00" stroke="#9ceef5" stroke-width="0.25"/>
<path d="M 48.11 47.93 C 48.67 51.07 48.65 54.26 48.80 57.43 L 48.82 57.99 L 48.43 57.93 C 47.15 57.75 45.88 57.58 44.61 57.35 C 45.02 54.99 45.04 52.59 44.56 50.24 C 44.11 51.96 43.67 53.68 43.35 55.42 C 42.97 54.20 42.55 53.00 42.11 51.80 C 43.33 50.90 44.55 50.00 45.78 49.11 C 46.00 51.96 46.69 54.74 47.55 57.46 C 47.94 54.30 48.28 51.12 48.11 47.93 Z" fill="#f5edbb" opacity="1.00" stroke="#f5edbb" stroke-width="0.25"/>
<path d="M 378.40 48.01 C 378.72 49.27 379.04 50.54 379.38 51.81 C 379.64 51.46 380.17 50.75 380.44 50.39 C 382.21 50.32 384.00 50.26 385.78 50.19 C 385.91 51.36 386.06 52.52 386.20 53.69 C 387.12 52.32 387.73 49.88 389.87 50.33 C 393.34 50.73 396.91 50.97 400.12 49.32 C 400.17 51.22 400.23 53.12 400.30 55.03 C 397.87 54.70 395.41 54.63 392.99 55.03 C 392.29 54.57 391.59 54.11 390.90 53.64 C 388.95 55.13 386.62 55.15 384.32 54.66 C 384.15 55.20 383.81 56.29 383.64 56.84 C 382.73 56.87 381.83 56.89 380.93 56.92 C 380.55 56.15 380.23 55.35 379.78 54.62 C 377.64 54.47 375.51 54.89 373.39 55.10 C 373.43 52.95 373.43 50.80 373.45 48.65 C 375.14 49.20 376.48 50.35 377.63 51.68 C 377.88 50.45 378.13 49.23 378.40 48.01 Z" fill="#dce3f2" opacity="1.00" stroke="#dce3f2" stroke-width="0.25"/>
<path d="M 413.89 54.30 C 412.89 51.91 413.33 48.80 415.91 47.66 C 415.17 51.88 415.79 56.45 418.96 59.58 C 415.41 60.68 414.81 56.68 413.89 54.30 Z" fill="#cecbbc" opacity="1.00" stroke="#cecbbc" stroke-width="0.25"/>
<path d="M 282.10 49.12 C 283.98 48.57 284.74 50.30 285.65 51.54 C 285.96 51.15 286.60 50.38 286.92 49.99 C 287.23 50.32 287.86 50.97 288.18 51.29 C 292.73 49.67 297.62 50.82 302.33 50.65 C 303.97 50.59 303.76 52.58 303.68 53.70 C 302.96 55.12 301.10 54.26 299.88 54.41 C 299.55 54.63 298.89 55.08 298.55 55.31 C 295.07 53.89 291.13 55.66 287.77 53.77 C 285.93 54.37 284.03 54.77 282.13 55.09 C 282.00 53.10 281.74 51.09 282.10 49.12 Z" fill="#e1e9f8" opacity="1.00" stroke="#e1e9f8" stroke-width="0.25"/>
<path d="M 428.26 51.82 C 428.14 48.94 431.49 49.00 433.41 49.81 C 432.26 50.22 431.12 50.63 429.99 51.06 C 430.02 51.78 430.10 53.24 430.14 53.96 C 431.97 53.00 433.64 51.77 435.15 50.35 C 436.95 50.32 438.76 50.28 440.58 50.19 C 440.94 50.17 441.68 50.13 442.04 50.11 C 442.31 51.84 442.57 53.58 442.82 55.32 C 441.32 54.50 440.91 52.85 440.47 51.33 C 440.24 51.97 439.78 53.25 439.55 53.89 C 438.33 54.21 437.12 54.53 435.91 54.86 C 435.09 54.66 434.28 54.46 433.46 54.26 C 431.23 55.50 428.26 54.77 428.26 51.82 Z" fill="#8c6008" opacity="1.00" stroke="#8c6008" stroke-width="0.25"/>
<path d="M 433.41 49.81 C 435.74 48.90 438.39 48.82 440.58 50.19 C 438.76 50.28 436.95 50.32 435.15 50.35 C 433.64 51.77 431.97 53.00 430.14 53.96 C 430.10 53.24 430.02 51.78 429.99 51.06 C 431.12 50.63 432.26 50.22 433.41 49.81 Z" fill="#e8b638" opacity="1.00" stroke="#e8b638" stroke-width="0.25"/>
<path d="M 442.04 50.11 C 446.65 48.91 451.47 49.36 456.17 49.37 C 454.95 49.80 453.72 50.24 452.50 50.67 C 452.45 51.31 452.33 52.59 452.28 53.24 C 450.37 51.17 447.73 50.25 445.03 49.81 C 444.87 51.10 444.72 52.39 444.58 53.68 C 444.14 54.09 443.26 54.91 442.82 55.32 C 442.57 53.58 442.31 51.84 442.04 50.11 Z" fill="#e9b02c" opacity="1.00" stroke="#e9b02c" stroke-width="0.25"/>
<path d="M 445.03 49.81 C 447.73 50.25 450.37 51.17 452.28 53.24 C 452.33 52.59 452.45 51.31 452.50 50.67 C 453.72 50.24 454.95 49.80 456.17 49.37 C 456.19 51.43 456.24 53.50 456.31 55.57 C 455.80 55.14 454.77 54.28 454.26 53.85 C 453.21 54.23 452.16 54.59 451.12 54.95 L 449.43 54.43 C 447.85 54.15 445.39 55.47 444.58 53.68 C 444.72 52.39 444.87 51.10 445.03 49.81 Z" fill="#8c6008" opacity="1.00" stroke="#8c6008" stroke-width="0.25"/>
<path d="M 44.56 50.24 C 45.04 52.59 45.02 54.99 44.61 57.35 C 44.29 57.17 43.65 56.80 43.33 56.62 L 43.35 55.42 C 43.67 53.68 44.11 51.96 44.56 50.24 Z" fill="#b5b982" opacity="1.00" stroke="#b5b982" stroke-width="0.25"/>
<path d="M 435.18 52.25 C 438.14 50.67 435.37 55.59 435.18 52.25 Z" fill="#e2d96f" opacity="1.00" stroke="#e2d96f" stroke-width="0.25"/>
<path d="M 446.10 52.11 C 449.03 50.47 446.33 55.46 446.10 52.11 Z" fill="#ddb44d" opacity="1.00" stroke="#ddb44d" stroke-width="0.25"/>
<path d="M 36.54 53.89 C 39.11 53.92 41.36 55.02 43.33 56.62 C 43.65 56.80 44.29 57.17 44.61 57.35 C 45.88 57.58 47.15 57.75 48.43 57.93 C 44.84 62.38 38.76 61.29 34.31 58.89 C 34.76 57.81 35.20 56.72 35.69 55.66 C 35.90 55.22 36.32 54.33 36.54 53.89 Z" fill="#f9fdfe" opacity="1.00" stroke="#f9fdfe" stroke-width="0.25"/>
<path d="M 451.12 54.95 C 452.16 54.59 453.21 54.23 454.26 53.85 C 454.77 54.28 455.80 55.14 456.31 55.57 C 454.21 56.63 451.89 56.29 449.73 55.61 L 451.12 54.95 Z" fill="#edb22c" opacity="1.00" stroke="#edb22c" stroke-width="0.25"/>
<path d="M 204.22 90.42 C 207.39 89.15 211.19 92.95 208.95 95.91 C 207.91 98.71 204.06 98.54 202.18 96.80 C 200.35 94.76 201.43 90.94 204.22 90.42 Z" fill="#fcffff" opacity="1.00" stroke="#fcffff" stroke-width="0.25"/>
<path d="M 176.08 93.25 C 178.25 93.21 180.43 93.18 182.61 93.14 C 182.64 97.87 182.52 102.60 182.88 107.32 C 185.22 105.15 187.21 102.53 189.98 100.87 C 192.37 100.50 194.79 100.84 197.19 100.97 C 194.86 103.71 191.91 105.97 190.13 109.14 C 191.15 112.95 194.42 115.52 196.92 118.39 C 196.84 119.02 196.69 120.28 196.61 120.91 C 194.52 120.81 192.41 120.87 190.35 120.46 C 188.01 118.37 186.27 115.71 184.11 113.46 C 183.11 115.86 182.29 118.34 181.65 120.86 C 179.68 120.77 177.70 120.76 175.77 120.35 C 175.30 111.34 175.90 102.27 176.08 93.25 Z" fill="#fefeff" opacity="1.00" stroke="#fefeff" stroke-width="0.25"/>
<path d="M 215.32 93.11 C 217.46 93.16 219.61 93.22 221.75 93.27 C 221.88 102.45 221.80 111.63 221.73 120.81 C 219.57 120.78 217.41 120.76 215.26 120.74 C 215.01 111.53 215.07 102.32 215.32 93.11 Z" fill="#fefeff" opacity="1.00" stroke="#fefeff" stroke-width="0.25"/>
<path d="M 228.23 93.07 C 230.38 92.82 232.54 92.69 234.71 92.61 C 235.21 101.96 235.05 111.34 234.90 120.70 C 232.69 120.72 230.49 120.73 228.29 120.74 C 228.26 111.52 228.34 102.30 228.23 93.07 Z" fill="#fdfffe" opacity="1.00" stroke="#fdfffe" stroke-width="0.25"/>
<path d="M 153.00 96.03 C 157.98 93.17 164.89 93.37 169.56 96.78 C 168.94 98.40 168.32 100.02 167.71 101.64 C 164.32 100.15 160.05 98.30 156.60 100.62 C 156.20 101.69 156.37 102.88 157.14 103.75 C 161.34 105.59 166.66 105.31 169.93 108.97 C 171.77 112.08 171.33 116.95 168.00 118.92 C 162.85 122.23 156.00 121.88 150.60 119.40 C 147.51 118.22 150.50 115.24 151.18 113.34 C 154.27 114.64 157.48 116.24 160.94 115.81 C 162.68 115.62 165.16 114.24 163.87 112.21 C 159.51 110.20 153.97 110.37 150.60 106.51 C 148.49 103.17 149.25 97.89 153.00 96.03 Z" fill="#fefefe" opacity="1.00" stroke="#fefefe" stroke-width="0.25"/>
<path d="M 241.52 94.65 C 249.14 94.58 256.78 94.48 264.40 94.83 C 264.61 96.66 264.63 98.51 264.56 100.35 C 262.08 100.30 259.60 100.27 257.12 100.25 C 256.32 106.98 257.35 113.80 256.40 120.50 C 254.34 120.94 252.22 120.79 250.13 120.76 C 249.22 114.03 249.87 107.22 249.67 100.46 C 247.03 100.34 244.41 100.22 241.78 100.08 C 241.65 98.27 241.54 96.46 241.52 94.65 Z" fill="#fcfefe" opacity="1.00" stroke="#fcfefe" stroke-width="0.25"/>
<path d="M 202.67 100.65 C 204.66 100.30 206.69 100.37 208.71 100.33 C 208.83 107.14 208.75 113.95 208.72 120.76 C 206.64 120.51 203.77 121.60 202.25 119.83 C 201.58 115.59 202.01 111.27 201.87 106.99 C 201.97 104.88 201.62 102.58 202.67 100.65 Z" fill="#fcfdfe" opacity="1.00" stroke="#fcfdfe" stroke-width="0.25"/>
<path d="M 302.02 101.32 C 304.99 101.23 308.07 99.55 310.99 100.89 C 313.07 101.93 315.41 103.52 315.82 106.00 C 316.65 110.88 316.33 115.87 315.96 120.79 C 313.77 120.76 311.58 120.74 309.40 120.72 C 309.29 116.50 309.71 112.26 309.16 108.07 C 307.60 105.14 302.65 105.56 301.88 108.93 C 301.24 112.85 301.64 116.84 301.63 120.79 C 299.49 120.46 296.48 121.53 294.91 120.03 C 294.31 113.66 294.74 107.23 294.99 100.85 C 297.34 100.93 299.67 101.23 302.02 101.32 Z" fill="#fcfffd" opacity="1.00" stroke="#fcfffd" stroke-width="0.25"/>
<path d="M 326.46 101.48 C 331.35 98.76 336.91 101.08 340.98 104.17 C 341.76 106.98 342.42 109.82 342.95 112.68 C 337.78 112.62 332.59 112.47 327.43 113.00 C 328.84 114.07 330.11 115.89 332.09 115.75 C 334.08 115.61 336.02 115.04 338.00 114.84 C 339.07 115.63 339.96 116.64 340.84 117.64 C 340.68 118.01 340.36 118.76 340.20 119.13 C 335.44 121.42 329.50 121.99 324.89 119.03 C 319.09 114.79 319.95 104.64 326.46 101.48 Z" fill="#fdfeff" opacity="1.00" stroke="#fdfeff" stroke-width="0.25"/>
<path d="M 267.78 100.66 C 269.93 100.69 272.08 100.73 274.24 100.77 C 274.43 104.41 274.23 108.05 274.46 111.68 C 274.47 113.59 276.07 115.37 278.01 115.43 C 279.73 115.01 281.46 113.86 281.93 112.06 C 282.44 108.46 281.88 104.80 282.37 101.20 C 284.31 100.08 286.72 101.06 288.84 101.07 C 288.72 107.68 288.64 114.29 288.71 120.90 C 286.16 120.88 283.57 120.75 281.22 119.68 C 276.81 122.48 269.98 121.27 268.15 115.99 C 266.98 110.97 267.58 105.75 267.78 100.66 Z" fill="#fcfeff" opacity="1.00" stroke="#fcfeff" stroke-width="0.25"/>
<path d="M 327.67 108.90 C 328.59 107.24 329.59 104.78 331.97 105.26 C 334.24 104.88 335.20 107.23 336.31 108.72 C 333.43 108.98 330.55 109.02 327.67 108.90 Z" fill="#c6cee4" opacity="1.00" stroke="#c6cee4" stroke-width="0.25"/>
<path d="M 310.35 135.43 C 310.90 135.40 312.00 135.35 312.55 135.32 C 312.54 138.49 311.78 141.60 311.37 144.73 C 311.34 145.80 310.76 146.68 309.91 147.31 C 309.40 143.53 307.11 138.52 310.35 135.43 Z" fill="#f9ffff" opacity="1.00" stroke="#f9ffff" stroke-width="0.25"/>
<path d="M 119.33 136.37 C 119.95 136.30 121.20 136.17 121.83 136.11 C 123.40 139.08 124.49 142.30 125.39 145.54 C 125.74 146.43 124.93 147.20 124.67 148.00 C 123.75 147.01 122.86 145.98 121.84 145.08 C 119.67 144.45 117.97 146.09 116.40 147.28 C 115.35 143.49 117.72 139.69 119.33 136.37 Z" fill="#f5f8ff" opacity="1.00" stroke="#f5f8ff" stroke-width="0.25"/>
<path d="M 137.08 147.08 C 137.09 143.32 135.60 138.39 138.45 135.43 C 138.61 139.27 139.08 143.11 138.89 146.95 C 138.44 146.99 137.53 147.05 137.08 147.08 Z" fill="#f7fcff" opacity="1.00" stroke="#f7fcff" stroke-width="0.25"/>
<path d="M 204.35 145.84 C 203.71 142.60 202.31 138.47 205.36 136.02 C 206.15 137.13 206.95 138.24 207.74 139.36 C 207.18 139.98 206.61 140.60 206.04 141.22 C 206.31 143.40 207.09 145.46 208.09 147.42 C 206.87 146.98 204.74 147.52 204.35 145.84 Z" fill="#f4fafe" opacity="1.00" stroke="#f4fafe" stroke-width="0.25"/>
<path d="M 268.96 135.76 C 269.84 136.83 270.70 137.92 271.56 139.01 C 270.58 141.74 270.82 144.57 271.72 147.28 C 270.75 146.78 268.87 147.02 268.62 145.68 C 268.23 142.41 267.68 138.92 268.96 135.76 Z" fill="#f9ffff" opacity="1.00" stroke="#f9ffff" stroke-width="0.25"/>
<path d="M 273.54 135.81 C 274.01 135.82 274.95 135.83 275.43 135.83 C 275.53 139.22 276.06 142.58 275.91 145.97 C 276.59 147.64 273.04 147.78 273.47 146.04 C 273.23 142.63 273.65 139.22 273.54 135.81 Z" fill="#ecf4fd" opacity="1.00" stroke="#ecf4fd" stroke-width="0.25"/>
<path d="M 334.29 147.00 C 334.25 143.34 331.76 138.68 335.37 136.01 C 336.12 136.97 336.88 137.92 337.63 138.88 C 335.89 141.64 336.23 144.69 338.14 147.26 C 336.85 147.15 335.57 147.07 334.29 147.00 Z" fill="#eff7fe" opacity="1.00" stroke="#eff7fe" stroke-width="0.25"/>
<path d="M 361.61 146.56 C 361.45 142.98 358.91 137.74 363.39 135.83 C 363.78 137.06 364.18 138.30 364.56 139.54 C 362.41 142.13 364.06 144.94 365.75 147.21 C 364.37 146.99 362.99 146.78 361.61 146.56 Z" fill="#f8ffff" opacity="1.00" stroke="#f8ffff" stroke-width="0.25"/>
<path d="M 127.19 139.18 C 129.37 138.39 132.65 137.30 134.30 139.59 C 135.66 142.16 135.20 145.32 134.03 147.88 C 132.92 145.75 132.63 143.37 132.53 141.00 C 131.60 140.83 130.67 140.64 129.73 140.49 C 128.92 142.74 129.98 146.17 127.36 147.33 C 127.14 144.64 126.31 141.81 127.19 139.18 Z" fill="#f5faff" opacity="1.00" stroke="#f5faff" stroke-width="0.25"/>
<path d="M 143.32 138.44 C 146.39 137.17 149.59 139.81 149.09 143.06 C 149.60 147.19 143.46 148.65 141.07 145.87 C 140.05 143.42 140.09 139.08 143.32 138.44 Z" fill="#f5f9fe" opacity="1.00" stroke="#f5f9fe" stroke-width="0.25"/>
<path d="M 152.60 138.64 C 154.67 137.90 156.88 138.48 159.00 138.70 C 158.96 142.07 159.31 145.50 158.64 148.83 C 157.15 151.91 151.70 151.98 150.59 148.54 C 152.91 148.81 155.37 149.28 157.38 147.72 C 155.51 147.23 153.57 146.95 151.77 146.22 C 149.56 144.29 149.68 139.86 152.60 138.64 Z" fill="#f5fafe" opacity="1.00" stroke="#f5fafe" stroke-width="0.25"/>
<path d="M 161.38 139.29 C 163.64 137.81 166.53 138.57 169.08 138.46 C 169.21 141.26 169.16 144.07 168.97 146.87 C 166.78 147.03 164.28 148.16 162.29 146.70 C 159.70 145.16 160.14 141.56 161.38 139.29 Z" fill="#f5f9fe" opacity="1.00" stroke="#f5f9fe" stroke-width="0.25"/>
<path d="M 171.80 138.72 C 175.44 138.45 179.10 138.59 182.74 138.54 C 184.90 140.64 183.57 144.16 183.81 146.84 C 183.46 146.82 182.78 146.79 182.44 146.78 C 182.33 144.88 182.27 142.97 181.95 141.09 C 181.14 140.20 179.94 140.57 178.92 140.61 C 178.78 142.87 178.64 145.13 178.35 147.37 C 175.78 145.70 177.83 139.90 173.92 140.76 C 173.65 142.74 173.57 144.74 173.48 146.74 C 172.94 146.74 171.87 146.76 171.33 146.76 C 171.45 144.11 170.81 141.23 171.80 138.72 Z" fill="#fbffff" opacity="1.00" stroke="#fbffff" stroke-width="0.25"/>
<path d="M 186.67 139.66 C 188.23 137.75 190.94 138.77 193.02 138.81 C 193.44 139.75 193.86 140.70 194.29 141.65 C 195.29 140.56 196.24 139.42 197.39 138.48 C 198.91 138.42 200.43 138.65 201.95 138.80 C 201.79 139.39 201.48 140.56 201.33 141.14 C 200.12 140.86 198.92 140.58 197.72 140.30 C 200.20 141.87 202.59 143.83 202.26 147.11 C 199.52 147.33 196.56 147.56 194.59 145.26 C 196.55 145.06 198.52 144.88 200.49 144.68 C 198.69 143.94 196.90 143.04 194.95 142.84 C 193.37 144.40 192.82 147.69 190.04 147.34 C 188.43 147.07 186.89 146.56 185.33 146.12 C 185.76 143.98 185.55 141.59 186.67 139.66 Z" fill="#f4f7fc" opacity="1.00" stroke="#f4f7fc" stroke-width="0.25"/>
<path d="M 216.29 138.41 C 219.66 137.25 222.82 140.73 221.73 144.02 C 221.59 146.96 218.11 148.18 215.67 147.34 C 211.63 146.11 211.93 138.91 216.29 138.41 Z" fill="#f0f8fd" opacity="1.00" stroke="#f0f8fd" stroke-width="0.25"/>
<path d="M 223.53 138.60 C 224.96 138.53 226.40 138.45 227.84 138.37 C 227.77 138.82 227.61 139.74 227.53 140.19 C 225.02 141.54 225.46 144.37 225.51 146.75 C 224.96 146.75 223.86 146.76 223.31 146.77 C 223.32 144.04 223.39 141.32 223.53 138.60 Z" fill="#f8ffff" opacity="1.00" stroke="#f8ffff" stroke-width="0.25"/>
<path d="M 233.50 140.03 C 233.51 139.09 233.96 138.47 234.86 138.15 C 236.87 138.31 239.05 138.12 240.88 139.10 C 242.63 140.98 242.38 144.09 241.22 146.22 C 239.68 147.51 237.49 147.25 235.63 147.57 C 235.42 148.82 235.22 150.08 234.97 151.34 C 234.59 150.90 233.82 150.01 233.43 149.57 C 233.34 146.39 233.11 143.19 233.50 140.03 Z" fill="#fcffff" opacity="1.00" stroke="#fcffff" stroke-width="0.25"/>
<path d="M 243.64 139.86 C 243.61 137.51 246.83 138.73 248.26 138.27 C 246.57 141.29 245.98 144.71 244.97 147.97 C 242.71 146.35 243.74 142.40 243.64 139.86 Z" fill="#f2f9fe" opacity="1.00" stroke="#f2f9fe" stroke-width="0.25"/>
<path d="M 250.04 138.98 C 252.30 138.00 254.94 138.22 257.30 138.74 C 257.87 141.34 257.64 144.02 257.66 146.66 C 255.09 146.93 251.99 148.35 249.83 146.21 C 248.18 144.18 248.11 140.84 250.04 138.98 Z" fill="#fcffff" opacity="1.00" stroke="#fcffff" stroke-width="0.25"/>
<path d="M 261.57 138.59 C 263.72 137.46 265.71 139.34 267.43 140.38 C 265.46 141.01 263.23 140.26 261.39 141.32 C 261.22 142.40 261.22 143.49 261.39 144.58 C 263.29 144.96 265.22 145.11 267.15 145.33 C 265.78 146.20 264.51 147.89 262.70 147.53 C 258.29 147.37 257.23 139.76 261.57 138.59 Z" fill="#f0f8fe" opacity="1.00" stroke="#f0f8fe" stroke-width="0.25"/>
<path d="M 280.25 138.35 C 282.41 137.44 284.03 139.22 285.18 140.78 C 283.18 141.18 280.48 140.23 279.11 142.14 C 279.13 143.20 279.45 144.16 280.05 145.03 C 281.38 144.93 282.71 144.73 284.04 144.54 C 284.06 145.21 284.10 146.54 284.12 147.21 C 282.23 147.20 279.97 148.04 278.37 146.63 C 276.29 144.14 276.34 138.94 280.25 138.35 Z" fill="#eef5fd" opacity="1.00" stroke="#eef5fd" stroke-width="0.25"/>
<path d="M 287.27 146.74 C 283.23 144.29 286.32 137.10 290.87 138.20 C 293.58 138.47 294.13 141.41 294.05 143.65 C 291.85 143.68 289.65 143.80 287.47 144.06 C 289.10 145.43 291.30 144.83 293.24 145.15 C 293.26 147.61 288.94 148.24 287.27 146.74 Z" fill="#eff6fd" opacity="1.00" stroke="#eff6fd" stroke-width="0.25"/>
<path d="M 298.29 138.43 C 301.18 137.27 304.37 140.66 303.44 143.45 C 301.39 143.82 299.29 143.89 297.23 144.13 C 299.04 145.18 301.18 145.10 303.19 145.35 C 301.93 146.32 300.70 147.70 298.92 147.38 C 294.01 147.66 293.66 139.03 298.29 138.43 Z" fill="#f1f7fd" opacity="1.00" stroke="#f1f7fd" stroke-width="0.25"/>
<path d="M 316.30 138.46 C 319.75 136.98 323.30 140.53 322.17 144.00 C 322.12 147.59 316.94 148.64 314.72 146.31 C 312.32 143.98 313.10 139.63 316.30 138.46 Z" fill="#eff8fe" opacity="1.00" stroke="#eff8fe" stroke-width="0.25"/>
<path d="M 324.03 138.43 C 326.51 138.49 328.99 138.54 331.47 138.61 C 331.49 141.44 331.72 144.27 331.92 147.09 C 331.29 147.04 330.02 146.94 329.38 146.89 C 329.29 145.39 329.20 143.90 329.12 142.42 C 329.08 141.84 329.02 140.68 328.98 140.10 C 328.11 140.41 327.23 140.72 326.36 141.03 C 326.01 143.31 325.68 145.67 324.42 147.67 C 324.07 144.60 324.02 141.52 324.03 138.43 Z" fill="#f9ffff" opacity="1.00" stroke="#f9ffff" stroke-width="0.25"/>
<path d="M 339.21 144.80 C 337.22 141.34 340.95 137.09 344.62 138.43 C 347.36 138.60 347.27 141.54 347.85 143.56 C 345.64 143.79 343.25 143.53 341.31 144.80 C 343.17 144.95 345.05 144.99 346.92 145.16 C 346.64 148.73 339.96 148.12 339.21 144.80 Z" fill="#eff6fd" opacity="1.00" stroke="#eff6fd" stroke-width="0.25"/>
<path d="M 349.41 138.48 C 352.56 138.23 355.73 138.29 358.85 138.79 C 359.01 141.86 359.14 145.01 358.09 147.95 C 356.59 145.92 356.82 143.30 356.01 141.02 C 354.69 139.77 352.93 140.67 351.44 140.99 C 351.38 143.38 351.23 145.83 349.94 147.93 C 348.38 144.97 349.02 141.63 349.41 138.48 Z" fill="#eef7fe" opacity="1.00" stroke="#eef7fe" stroke-width="0.25"/>
<path d="M 373.29 138.49 C 376.34 137.20 379.75 139.77 379.18 143.08 C 379.55 146.54 375.00 148.76 372.36 146.75 C 369.14 144.99 369.65 139.43 373.29 138.49 Z" fill="#eef7fe" opacity="1.00" stroke="#eef7fe" stroke-width="0.25"/>
<path d="M 380.46 146.43 C 380.60 143.63 380.76 140.82 381.25 138.06 C 383.42 138.38 385.92 138.03 387.83 139.24 C 388.82 141.04 388.72 143.20 388.95 145.20 C 388.82 145.56 388.56 146.28 388.43 146.64 C 387.94 146.69 386.96 146.79 386.47 146.84 C 386.37 144.76 386.28 142.69 386.19 140.61 C 385.08 140.61 383.98 140.61 382.89 140.63 C 382.78 142.70 382.69 144.76 382.59 146.83 C 382.06 146.73 380.99 146.53 380.46 146.43 Z" fill="#f5ffff" opacity="1.00" stroke="#f5ffff" stroke-width="0.25"/>
<path d="M 366.90 138.76 C 369.41 137.89 368.70 141.60 368.94 142.99 C 368.72 144.30 369.49 147.73 367.13 147.09 C 366.38 144.38 366.49 141.52 366.90 138.76 Z" fill="#f1f9ff" opacity="1.00" stroke="#f1f9ff" stroke-width="0.25"/>
<path d="M 142.79 140.55 C 144.24 140.70 145.68 140.85 147.14 141.02 C 146.94 143.52 145.80 145.71 142.92 145.29 C 142.87 143.71 142.82 142.13 142.79 140.55 Z" fill="#dfe1ed" opacity="1.00" stroke="#dfe1ed" stroke-width="0.25"/>
<path d="M 152.11 141.08 C 153.68 140.75 156.68 139.35 156.74 142.06 C 157.48 144.61 154.66 145.14 152.82 145.36 C 152.58 143.93 152.34 142.50 152.11 141.08 Z" fill="#dcdfe9" opacity="1.00" stroke="#dcdfe9" stroke-width="0.25"/>
<path d="M 164.32 140.27 C 167.09 139.83 166.71 142.94 167.02 144.79 C 166.18 144.97 164.50 145.32 163.66 145.49 C 162.86 143.84 161.99 141.11 164.32 140.27 Z" fill="#dadee7" opacity="1.00" stroke="#dadee7" stroke-width="0.25"/>
<path d="M 217.26 140.34 C 219.11 140.35 220.15 142.37 219.19 143.96 C 218.75 146.48 214.84 145.10 215.22 142.97 C 215.14 141.75 216.30 140.85 217.26 140.34 Z" fill="#d6dee6" opacity="1.00" stroke="#d6dee6" stroke-width="0.25"/>
<path d="M 253.20 140.33 C 256.31 139.95 256.12 145.88 253.00 145.37 C 250.04 144.94 250.12 140.43 253.20 140.33 Z" fill="#d6dae5" opacity="1.00" stroke="#d6dae5" stroke-width="0.25"/>
<path d="M 289.23 139.98 C 290.81 139.28 291.85 141.89 290.03 142.23 C 288.44 142.94 287.40 140.32 289.23 139.98 Z" fill="#d7dce5" opacity="1.00" stroke="#d7dce5" stroke-width="0.25"/>
<path d="M 298.20 140.09 C 299.22 139.43 301.73 140.28 300.69 141.74 C 299.49 143.54 295.48 141.40 298.20 140.09 Z" fill="#d6dbe6" opacity="1.00" stroke="#d6dbe6" stroke-width="0.25"/>
<path d="M 315.86 143.05 C 315.33 141.11 317.19 140.27 318.77 140.13 C 320.44 141.21 319.77 143.40 320.08 145.06 C 318.43 144.85 315.46 145.72 315.86 143.05 Z" fill="#cfdbe9" opacity="1.00" stroke="#cfdbe9" stroke-width="0.25"/>
<path d="M 342.23 140.27 C 343.16 139.65 345.49 140.36 344.62 141.75 C 343.56 143.43 339.77 141.55 342.23 140.27 Z" fill="#d5dee4" opacity="1.00" stroke="#d5dee4" stroke-width="0.25"/>
<path d="M 372.42 143.16 C 372.29 141.19 374.33 140.58 375.75 139.87 C 376.02 141.14 377.21 142.39 376.76 143.73 C 376.31 146.03 372.31 145.49 372.42 143.16 Z" fill="#ccd4e2" opacity="1.00" stroke="#ccd4e2" stroke-width="0.25"/>
<path d="M 236.11 141.08 C 237.36 140.35 238.67 140.30 240.03 140.92 C 240.46 142.59 240.49 145.65 237.97 145.35 C 235.50 145.97 235.21 142.65 236.11 141.08 Z" fill="#d5e0ec" opacity="1.00" stroke="#d5e0ec" stroke-width="0.25"/>
<path d="M 188.54 144.11 C 189.19 143.19 191.67 143.24 191.47 144.67 C 190.82 145.58 188.34 145.54 188.54 144.11 Z" fill="#d7dbe4" opacity="1.00" stroke="#d7dbe4" stroke-width="0.25"/>
<path d="M 200.66 169.55 C 203.87 169.53 207.09 169.48 210.30 169.22 C 235.87 169.86 261.46 169.32 287.03 169.54 C 292.71 169.76 298.93 168.34 304.05 171.52 C 275.39 171.72 246.72 171.52 218.05 171.59 C 211.25 171.69 204.35 171.02 197.67 172.65 C 198.68 171.64 199.67 170.59 200.66 169.55 Z" fill="#e3d8bc" opacity="1.00" stroke="#e3d8bc" stroke-width="0.25"/>
<path d="M 197.67 172.65 C 204.35 171.02 211.25 171.69 218.05 171.59 C 246.72 171.52 275.39 171.72 304.05 171.52 C 306.22 175.09 310.08 178.38 309.35 182.98 C 308.44 188.21 303.54 192.83 298.03 192.30 C 267.01 192.34 236.00 192.32 204.98 192.31 C 201.14 192.56 197.26 191.03 195.08 187.77 C 192.28 184.54 193.53 180.03 193.79 176.20 C 195.08 175.02 196.41 173.87 197.67 172.65 Z" fill="#fbaf09" opacity="1.00" stroke="#fbaf09" stroke-width="0.25"/>
<path d="M 304.05 171.52 C 307.07 172.88 309.17 175.50 310.87 178.24 C 310.97 181.10 311.78 184.32 309.93 186.83 C 307.09 191.41 302.09 193.89 297.02 195.18 C 289.70 194.25 282.32 194.62 274.97 194.60 C 260.61 194.65 246.26 194.54 231.90 194.66 C 222.91 194.52 213.93 194.61 204.94 194.69 C 200.86 194.81 196.64 193.16 194.21 189.78 C 191.38 186.04 189.80 179.69 193.79 176.20 C 193.53 180.03 192.28 184.54 195.08 187.77 C 197.26 191.03 201.14 192.56 204.98 192.31 C 236.00 192.32 267.01 192.34 298.03 192.30 C 303.54 192.83 308.44 188.21 309.35 182.98 C 310.08 178.38 306.22 175.09 304.05 171.52 Z" fill="#dcdcd2" opacity="1.00" stroke="#dcdcd2" stroke-width="0.25"/>
<path d="M 207.51 178.17 C 212.58 178.31 217.60 179.24 222.69 179.21 C 225.11 179.28 227.66 178.75 229.91 179.94 C 228.23 180.15 226.51 180.20 224.86 180.63 C 224.16 181.62 223.53 182.64 222.96 183.70 C 222.85 183.94 222.63 184.40 222.53 184.63 C 222.22 183.21 221.91 181.78 221.60 180.37 C 217.22 180.43 212.41 181.28 208.50 178.76 L 207.51 178.17 Z" fill="#f0b326" opacity="1.00" stroke="#f0b326" stroke-width="0.25"/>
<path d="M 208.50 178.76 C 212.41 181.28 217.22 180.43 221.60 180.37 C 221.91 181.78 222.22 183.21 222.53 184.63 L 221.45 184.24 C 220.78 183.34 220.16 182.41 219.60 181.44 C 219.41 182.29 219.04 184.00 218.86 184.86 C 218.39 183.94 217.93 183.02 217.48 182.10 C 216.92 182.81 215.80 184.23 215.24 184.93 C 215.10 184.42 214.83 183.39 214.69 182.87 L 214.63 182.58 L 214.48 182.58 L 214.35 182.84 C 212.94 185.03 209.19 185.76 207.35 183.72 C 206.41 181.95 207.88 180.32 208.50 178.76 Z" fill="#8c6008" opacity="1.00" stroke="#8c6008" stroke-width="0.25"/>
<path d="M 260.80 179.69 C 261.85 179.41 262.92 179.19 264.01 179.04 C 264.32 179.50 264.95 180.43 265.26 180.89 C 264.28 180.94 262.31 181.04 261.33 181.08 C 261.59 181.67 262.12 182.84 262.39 183.43 C 264.48 182.97 265.94 181.19 267.95 180.58 C 269.99 180.18 272.07 180.18 274.13 180.07 L 274.29 180.87 C 274.38 181.76 274.55 183.55 274.64 184.45 L 273.03 184.46 C 272.96 183.74 272.81 182.32 272.73 181.61 C 272.27 182.58 271.81 183.56 271.37 184.55 C 268.01 184.58 264.62 184.98 261.28 184.51 C 259.60 183.61 259.85 181.07 260.80 179.69 Z" fill="#99701e" opacity="1.00" stroke="#99701e" stroke-width="0.25"/>
<path d="M 264.01 179.04 C 268.27 178.89 272.55 178.92 276.79 179.49 L 276.79 179.64 C 276.84 181.28 276.89 182.93 276.95 184.57 C 276.58 184.60 275.84 184.65 275.47 184.67 C 275.05 183.40 274.61 182.15 274.29 180.87 L 274.13 180.07 C 272.07 180.18 269.99 180.18 267.95 180.58 C 265.94 181.19 264.48 182.97 262.39 183.43 C 262.12 182.84 261.59 181.67 261.33 181.08 C 262.31 181.04 264.28 180.94 265.26 180.89 C 264.95 180.43 264.32 179.50 264.01 179.04 Z" fill="#e9b132" opacity="1.00" stroke="#e9b132" stroke-width="0.25"/>
<path d="M 277.54 179.81 C 282.28 178.94 287.16 178.93 291.95 179.28 C 294.39 179.42 295.44 183.03 293.68 184.67 C 292.41 186.88 289.65 185.38 287.82 184.87 C 287.94 183.29 288.05 181.70 288.17 180.12 C 286.77 180.36 285.37 180.61 283.98 180.85 C 283.80 181.99 283.61 183.13 283.41 184.27 C 283.32 183.47 283.14 181.86 283.05 181.06 C 281.21 180.65 279.37 180.23 277.54 179.81 Z" fill="#e4ab28" opacity="1.00" stroke="#e4ab28" stroke-width="0.25"/>
<path d="M 224.86 180.63 C 226.51 180.20 228.23 180.15 229.91 179.94 C 230.09 181.26 230.28 182.58 230.46 183.90 C 231.15 181.48 232.64 179.46 235.33 179.20 C 235.45 181.10 235.53 183.00 235.64 184.90 C 231.42 184.14 226.84 185.93 222.96 183.70 C 223.53 182.64 224.16 181.62 224.86 180.63 Z" fill="#ab7e17" opacity="1.00" stroke="#ab7e17" stroke-width="0.25"/>
<path d="M 276.79 179.64 L 277.54 179.81 C 279.37 180.23 281.21 180.65 283.05 181.06 C 283.14 181.86 283.32 183.47 283.41 184.27 C 283.61 183.13 283.80 181.99 283.98 180.85 C 285.37 180.61 286.77 180.36 288.17 180.12 C 288.05 181.70 287.94 183.29 287.82 184.87 C 284.61 184.75 280.60 185.60 278.75 182.21 C 278.30 182.80 277.40 183.98 276.95 184.57 C 276.89 182.93 276.84 181.28 276.79 179.64 Z" fill="#a77e1d" opacity="1.00" stroke="#a77e1d" stroke-width="0.25"/>
<path d="M 289.01 180.11 C 289.79 180.05 291.35 179.92 292.13 179.85 C 292.72 181.10 293.78 182.46 292.90 183.87 C 292.30 185.59 289.86 185.35 289.07 183.95 C 288.99 182.67 288.97 181.39 289.01 180.11 Z" fill="#9f7914" opacity="1.00" stroke="#9f7914" stroke-width="0.25"/>
<path d="M 209.26 181.41 C 210.44 180.11 213.06 182.02 211.19 183.15 C 209.96 184.44 207.55 182.67 209.26 181.41 Z" fill="#e6b742" opacity="1.00" stroke="#e6b742" stroke-width="0.25"/>
<path d="M 214.48 182.58 L 214.63 182.58 L 214.69 182.87 L 214.35 182.84 L 214.48 182.58 Z" fill="#f1c660" opacity="1.00" stroke="#f1c660" stroke-width="0.25"/>
<path d="M 225.39 182.23 C 228.30 180.56 225.68 185.56 225.39 182.23 Z" fill="#e4bb5a" opacity="1.00" stroke="#e4bb5a" stroke-width="0.25"/>
<path d="M 267.13 182.08 C 270.45 182.06 265.74 185.15 267.13 182.08 Z" fill="#e0b455" opacity="1.00" stroke="#e0b455" stroke-width="0.25"/>
<path d="M 231.90 194.66 C 246.26 194.54 260.61 194.65 274.97 194.60 C 282.32 194.62 289.70 194.25 297.02 195.18 C 294.30 197.06 290.97 197.25 287.80 197.61 C 290.43 197.79 293.06 197.96 295.70 198.01 C 291.91 199.97 293.02 204.53 292.88 208.01 C 293.08 264.35 292.90 320.69 292.95 377.03 C 292.06 384.66 292.89 392.28 293.17 399.92 C 296.73 400.77 300.39 401.07 304.05 400.98 C 302.34 400.06 300.62 399.16 298.90 398.26 C 299.18 398.06 299.74 397.67 300.02 397.47 C 303.17 398.35 306.29 399.35 309.50 400.04 C 308.26 401.21 307.29 402.85 305.66 403.51 C 302.10 404.03 298.43 403.85 294.96 404.99 C 298.23 406.00 301.64 406.34 305.04 406.54 C 302.10 406.80 299.16 407.04 296.22 407.25 C 296.02 410.32 296.47 413.78 294.31 416.30 C 292.16 419.05 293.02 422.75 292.89 425.97 C 293.07 454.65 292.81 483.32 293.00 512.00 L 220.02 512.00 C 220.13 493.49 219.78 474.97 220.17 456.46 C 221.39 456.16 222.62 455.86 223.85 455.58 C 224.12 450.54 224.11 445.50 223.80 440.48 C 222.58 440.15 221.37 439.84 220.16 439.53 C 219.95 431.58 219.61 423.58 220.56 415.67 C 221.15 410.85 221.12 406.00 221.03 401.17 C 222.04 400.38 223.06 399.59 224.08 398.82 C 224.04 396.93 224.00 395.05 223.96 393.18 C 223.04 392.40 222.12 391.62 221.21 390.85 C 219.17 376.64 220.25 362.27 220.03 347.98 C 219.96 344.14 220.01 340.30 220.14 336.47 C 221.41 336.15 222.67 335.84 223.93 335.54 C 223.93 333.18 223.92 330.83 223.92 328.49 C 222.66 328.14 221.40 327.79 220.14 327.45 C 220.11 325.10 220.09 322.76 220.06 320.42 C 221.37 320.12 222.69 319.82 224.01 319.53 C 224.01 317.48 224.20 315.41 223.80 313.39 C 222.50 311.95 219.76 311.39 220.00 309.03 C 219.69 304.82 220.08 300.60 220.21 296.40 C 221.42 296.10 222.63 295.81 223.84 295.53 C 224.13 290.49 224.14 285.44 223.84 280.40 C 222.61 280.10 221.38 279.81 220.15 279.52 C 219.96 271.83 219.87 264.14 220.17 256.46 C 221.38 256.16 222.60 255.85 223.82 255.56 C 224.10 250.51 224.11 245.46 223.84 240.41 C 222.63 240.11 221.42 239.81 220.22 239.51 C 219.84 228.46 219.93 217.39 220.12 206.33 C 224.02 205.65 227.95 205.10 231.90 204.72 C 231.91 204.10 231.94 202.86 231.95 202.25 C 229.73 202.07 227.51 201.89 225.29 201.70 C 225.16 201.23 224.91 200.28 224.78 199.81 C 228.57 200.43 232.24 198.86 236.02 198.89 C 242.43 198.82 248.87 199.39 255.26 198.59 C 242.83 196.99 230.20 199.10 217.78 197.41 C 223.12 196.85 228.50 196.99 233.86 196.78 C 233.37 196.25 232.39 195.19 231.90 194.66 Z" fill="#cfdbf1" opacity="1.00" stroke="#cfdbf1" stroke-width="0.25"/>
<path d="M 132.02 227.72 C 141.74 226.03 150.90 235.96 149.11 245.57 C 147.08 245.92 144.84 245.88 143.16 247.27 C 142.77 247.52 141.98 248.04 141.59 248.29 C 141.88 249.48 142.24 250.65 142.46 251.86 C 141.38 251.30 140.31 250.73 139.25 250.14 C 138.63 249.13 137.99 248.13 137.35 247.13 C 138.27 244.59 139.57 241.82 138.56 239.09 C 137.10 235.17 131.63 233.49 128.38 236.27 C 125.13 238.57 124.35 243.72 127.39 246.53 C 129.55 249.22 133.24 248.68 136.25 248.31 C 137.51 249.85 138.77 251.38 140.04 252.92 C 139.54 255.19 139.26 257.51 139.10 259.84 L 139.04 260.58 C 131.84 258.68 123.67 256.24 120.09 249.02 C 115.17 240.34 122.38 228.43 132.02 227.72 Z" fill="#fdfefc" opacity="1.00" stroke="#fdfefc" stroke-width="0.25"/>
<path d="M 363.53 237.05 C 362.99 234.11 363.26 231.06 365.69 229.02 C 368.41 229.83 371.09 231.68 374.05 230.83 C 376.95 230.03 379.84 230.72 382.46 232.07 C 383.19 235.47 384.40 238.74 385.33 242.08 C 386.31 247.02 384.32 251.91 381.79 256.05 C 378.29 255.38 375.14 253.75 372.38 251.55 C 372.37 250.55 372.37 249.55 372.38 248.55 C 373.34 246.40 375.43 242.18 371.93 241.42 C 370.45 242.63 369.81 244.50 368.87 246.10 C 368.46 243.74 368.12 241.36 367.64 239.02 C 367.58 238.79 367.47 238.32 367.41 238.09 C 366.12 237.71 364.82 237.38 363.53 237.05 Z" fill="#153d80" opacity="1.00" stroke="#153d80" stroke-width="0.25"/>
<path d="M 128.38 236.27 C 131.63 233.49 137.10 235.17 138.56 239.09 C 139.57 241.82 138.27 244.59 137.35 247.13 C 137.99 248.13 138.63 249.13 139.25 250.14 C 140.31 250.73 141.38 251.30 142.46 251.86 C 142.24 250.65 141.88 249.48 141.59 248.29 C 141.98 248.04 142.77 247.52 143.16 247.27 C 144.41 247.70 145.66 248.12 146.91 248.54 C 146.75 249.91 146.59 251.28 146.44 252.66 L 145.79 252.70 C 144.37 252.75 142.96 252.85 141.55 252.99 C 141.35 253.77 140.95 255.34 140.75 256.13 C 141.28 256.36 142.33 256.83 142.86 257.07 L 143.92 257.54 C 142.50 258.66 140.89 259.50 139.10 259.84 C 139.26 257.51 139.54 255.19 140.04 252.92 C 138.77 251.38 137.51 249.85 136.25 248.31 C 133.24 248.68 129.55 249.22 127.39 246.53 C 124.35 243.72 125.13 238.57 128.38 236.27 Z" fill="#1e3a6a" opacity="1.00" stroke="#1e3a6a" stroke-width="0.25"/>
<path d="M 128.55 238.60 C 130.34 237.00 133.05 236.25 135.08 237.89 C 137.64 239.47 136.42 242.80 136.21 245.21 C 134.44 245.61 132.68 246.08 130.88 246.31 C 127.99 245.21 126.46 241.10 128.55 238.60 Z" fill="#66498e" opacity="1.00" stroke="#66498e" stroke-width="0.25"/>
<path d="M 364.18 253.54 C 362.69 248.65 362.87 242.08 367.64 239.02 C 368.12 241.36 368.46 243.74 368.87 246.10 C 369.81 244.50 370.45 242.63 371.93 241.42 C 375.43 242.18 373.34 246.40 372.38 248.55 C 372.37 249.55 372.37 250.55 372.38 251.55 C 375.14 253.75 378.29 255.38 381.79 256.05 C 381.55 257.75 381.51 259.47 381.43 261.19 C 377.95 262.32 374.43 263.37 371.12 264.94 C 370.70 262.22 370.28 259.50 369.83 256.78 C 367.92 255.83 364.78 256.03 364.18 253.54 Z" fill="#f4b79a" opacity="1.00" stroke="#f4b79a" stroke-width="0.25"/>
<path d="M 141.55 252.99 C 142.96 252.85 144.37 252.75 145.79 252.70 C 147.64 255.23 144.64 256.10 142.86 257.07 C 142.33 256.83 141.28 256.36 140.75 256.13 C 140.95 255.34 141.35 253.77 141.55 252.99 Z" fill="#e1c4bf" opacity="1.00" stroke="#e1c4bf" stroke-width="0.25"/>
<path d="M 113.93 268.03 C 116.91 265.46 120.05 263.08 123.06 260.54 C 125.46 261.49 128.09 262.11 130.14 263.73 C 131.50 266.07 132.21 268.83 134.23 270.74 C 137.12 273.84 141.38 276.48 141.72 281.12 C 142.48 285.01 140.39 288.47 138.88 291.87 C 137.93 293.26 139.45 294.51 139.94 295.77 C 140.74 297.32 141.41 298.93 142.03 300.57 L 142.45 301.64 C 140.89 302.09 139.34 302.57 137.81 303.10 C 133.23 304.61 129.11 307.31 124.42 308.49 C 121.18 309.35 118.16 306.62 117.40 303.62 C 115.81 297.87 116.05 291.83 115.09 285.97 C 114.10 280.04 113.99 274.03 113.93 268.03 Z" fill="#fefefe" opacity="1.00" stroke="#fefefe" stroke-width="0.25"/>
<path d="M 371.12 264.94 C 374.43 263.37 377.95 262.32 381.43 261.19 C 384.82 263.08 388.47 264.87 390.91 267.99 C 394.77 273.53 395.78 280.41 397.26 286.85 C 397.98 286.82 399.42 286.74 400.14 286.70 C 393.09 288.17 385.72 288.33 378.96 290.97 C 373.33 293.36 369.61 298.89 368.82 304.86 C 367.53 313.91 364.53 322.89 365.73 332.13 C 365.28 329.52 365.10 326.89 364.86 324.27 C 363.19 324.32 361.53 324.37 359.87 324.45 C 360.37 324.41 361.38 324.31 361.89 324.26 C 360.79 321.07 359.90 317.80 359.59 314.44 C 359.42 311.82 359.40 309.21 359.44 306.60 C 359.99 296.09 358.38 285.33 360.96 275.01 C 361.89 269.82 366.78 267.03 371.12 264.94 Z" fill="#4b72af" opacity="1.00" stroke="#4b72af" stroke-width="0.25"/>
<path d="M 112.24 280.60 C 112.38 276.38 111.55 271.81 113.93 268.03 C 113.99 274.03 114.10 280.04 115.09 285.97 C 116.05 291.83 115.81 297.87 117.40 303.62 C 118.16 306.62 121.18 309.35 124.42 308.49 C 129.11 307.31 133.23 304.61 137.81 303.10 C 136.07 308.54 135.49 314.25 135.01 319.92 C 138.80 320.19 142.93 319.47 146.40 321.35 C 133.23 321.44 120.06 321.52 106.89 321.41 L 107.07 321.21 C 110.48 315.91 115.48 309.66 113.00 303.01 C 110.79 295.72 112.17 288.06 112.24 280.60 Z" fill="#e9edf6" opacity="1.00" stroke="#e9edf6" stroke-width="0.25"/>
<path d="M 168.14 292.82 C 173.27 288.05 178.53 283.36 184.29 279.35 C 185.37 280.90 186.48 282.42 187.60 283.95 C 184.78 286.62 181.77 289.11 178.63 291.40 C 176.13 293.23 173.95 295.43 171.76 297.60 L 171.16 298.18 C 169.69 299.61 168.20 301.02 166.64 302.36 C 165.11 301.16 163.58 299.96 162.05 298.76 C 164.13 296.84 166.14 294.83 168.14 292.82 Z" fill="#fdfeff" opacity="1.00" stroke="#fdfeff" stroke-width="0.25"/>
<path d="M 86.52 291.95 C 87.41 287.99 91.41 285.69 95.31 286.22 C 96.99 289.14 99.42 291.74 100.00 295.16 C 101.67 303.67 103.32 312.19 105.63 320.56 C 102.02 321.92 97.90 322.40 94.27 320.86 C 90.54 315.68 91.93 308.46 88.18 303.19 C 87.32 299.52 86.06 295.77 86.52 291.95 Z" fill="#2275f2" opacity="1.00" stroke="#2275f2" stroke-width="0.25"/>
<path d="M 100.00 295.16 C 99.42 291.74 96.99 289.14 95.31 286.22 C 98.35 287.36 100.70 289.89 101.20 293.14 C 102.90 302.55 104.72 311.94 107.07 321.21 L 106.89 321.41 C 106.41 321.86 105.44 322.76 104.96 323.21 C 100.77 322.78 95.04 324.79 92.06 320.99 C 89.83 315.32 89.39 309.12 88.18 303.19 C 91.93 308.46 90.54 315.68 94.27 320.86 C 97.90 322.40 102.02 321.92 105.63 320.56 C 103.32 312.19 101.67 303.67 100.00 295.16 Z" fill="#4781d7" opacity="1.00" stroke="#4781d7" stroke-width="0.25"/>
<path d="M 139.94 295.77 C 142.29 291.51 145.61 287.42 150.55 286.19 C 149.73 287.65 148.90 289.10 148.04 290.55 C 149.88 290.13 151.73 289.74 153.57 289.32 C 153.72 291.52 153.84 293.71 153.95 295.91 C 150.91 299.28 146.32 300.11 142.03 300.57 C 141.41 298.93 140.74 297.32 139.94 295.77 Z" fill="#183e81" opacity="1.00" stroke="#183e81" stroke-width="0.25"/>
<path d="M 400.14 286.70 C 403.10 286.41 406.56 285.75 408.95 288.07 C 412.30 290.47 411.80 294.97 411.23 298.53 C 408.88 311.67 406.96 324.89 404.77 338.05 C 404.30 341.79 401.62 345.02 398.12 346.32 C 394.08 346.57 389.98 346.89 385.97 346.27 C 381.67 345.04 378.08 342.22 374.05 340.39 C 370.43 338.73 366.84 336.17 365.73 332.13 C 364.53 322.89 367.53 313.91 368.82 304.86 C 369.61 298.89 373.33 293.36 378.96 290.97 C 385.72 288.33 393.09 288.17 400.14 286.70 Z" fill="#03aeb5" opacity="1.00" stroke="#03aeb5" stroke-width="0.25"/>
<path d="M 171.76 297.60 C 173.95 295.43 176.13 293.23 178.63 291.40 C 181.16 294.73 176.59 297.97 174.17 299.76 C 174.08 298.31 173.27 297.59 171.76 297.60 Z" fill="#e0beb5" opacity="1.00" stroke="#e0beb5" stroke-width="0.25"/>
<path d="M 155.58 293.31 C 155.80 294.06 156.02 294.81 156.23 295.57 C 156.90 295.14 157.56 294.72 158.23 294.30 C 161.62 294.95 165.24 295.00 168.14 292.82 C 166.14 294.83 164.13 296.84 162.05 298.76 C 163.58 299.96 165.11 301.16 166.64 302.36 C 164.10 304.10 161.00 305.04 157.94 304.32 C 152.81 303.24 147.56 302.79 142.45 301.64 L 142.03 300.57 C 146.32 300.11 150.91 299.28 153.95 295.91 C 154.50 295.05 155.05 294.18 155.58 293.31 Z" fill="#eaedf7" opacity="1.00" stroke="#eaedf7" stroke-width="0.25"/>
<path d="M 171.16 298.18 L 171.76 297.60 C 173.27 297.59 174.08 298.31 174.17 299.76 C 173.06 301.07 170.77 299.82 171.16 298.18 Z" fill="#7f7d84" opacity="1.00" stroke="#7f7d84" stroke-width="0.25"/>
<path d="M 334.60 306.72 C 336.03 305.94 337.46 305.13 339.00 304.56 C 341.00 304.81 342.69 305.99 344.43 306.89 C 345.82 307.70 347.20 308.53 348.59 309.34 C 349.03 308.69 349.92 307.38 350.37 306.73 C 353.39 306.58 356.42 306.53 359.44 306.60 C 359.40 309.21 359.42 311.82 359.59 314.44 C 354.05 314.53 348.57 313.44 343.04 313.39 C 338.38 313.33 333.75 311.94 330.09 309.00 C 333.27 309.00 336.46 308.87 339.63 308.48 C 338.17 307.37 336.40 306.85 334.60 306.72 Z" fill="#f3b899" opacity="1.00" stroke="#f3b899" stroke-width="0.25"/>
<path d="M 318.59 308.15 C 323.60 305.85 329.28 307.31 334.60 306.72 C 336.40 306.85 338.17 307.37 339.63 308.48 C 336.46 308.87 333.27 309.00 330.09 309.00 C 326.25 308.87 322.39 308.78 318.59 308.15 Z" fill="#816c67" opacity="1.00" stroke="#816c67" stroke-width="0.25"/>
<path d="M 344.43 306.89 C 346.41 306.89 348.39 306.81 350.37 306.73 C 349.92 307.38 349.03 308.69 348.59 309.34 C 347.20 308.53 345.82 307.70 344.43 306.89 Z" fill="#896559" opacity="1.00" stroke="#896559" stroke-width="0.25"/>
<path d="M 433.29 319.01 C 442.00 319.66 448.12 327.22 451.23 334.77 C 451.95 338.08 452.06 341.51 451.42 344.86 C 447.40 342.98 443.27 341.03 440.22 337.71 C 435.30 332.80 433.56 325.74 433.29 319.01 Z" fill="#04acb2" opacity="1.00" stroke="#04acb2" stroke-width="0.25"/>
<path d="M 466.71 329.20 C 470.18 324.07 475.51 320.24 481.64 319.06 C 481.44 324.88 480.47 330.96 476.95 335.78 C 473.78 340.04 469.41 344.05 463.90 344.64 C 463.25 344.73 461.96 344.93 461.31 345.03 C 462.41 339.55 463.57 333.94 466.71 329.20 Z" fill="#03acb2" opacity="1.00" stroke="#03acb2" stroke-width="0.25"/>
<path d="M 104.96 323.21 C 105.44 322.76 106.41 321.86 106.89 321.41 C 120.06 321.52 133.23 321.44 146.40 321.35 C 146.88 322.20 147.32 323.08 147.75 323.98 L 148.07 324.87 C 147.08 324.52 146.09 324.18 145.10 323.85 C 142.20 322.82 139.08 323.04 136.06 323.04 C 125.69 323.22 115.32 322.92 104.96 323.21 Z" fill="#5278ab" opacity="1.00" stroke="#5278ab" stroke-width="0.25"/>
<path d="M 147.75 323.98 C 153.16 323.47 158.62 323.65 164.03 322.99 C 167.41 322.80 171.44 322.34 174.08 324.93 C 177.74 328.22 178.66 333.33 178.99 338.01 C 180.18 353.32 182.90 368.49 183.27 383.85 C 182.87 383.61 182.07 383.12 181.67 382.88 C 178.27 383.16 174.89 383.72 171.51 384.17 C 170.83 381.95 169.99 379.79 169.15 377.64 C 171.03 366.43 173.11 355.25 174.90 344.02 C 175.89 337.94 175.15 330.14 168.98 327.03 C 162.30 324.49 154.85 327.10 148.07 324.87 L 147.75 323.98 Z" fill="#e8edf6" opacity="1.00" stroke="#e8edf6" stroke-width="0.25"/>
<path d="M 93.56 323.90 C 110.73 323.66 127.92 324.00 145.10 323.85 C 146.09 324.18 147.08 324.52 148.07 324.87 C 154.85 327.10 162.30 324.49 168.98 327.03 C 175.15 330.14 175.89 337.94 174.90 344.02 C 173.11 355.25 171.03 366.43 169.15 377.64 C 168.63 380.25 168.11 382.96 166.60 385.21 C 164.04 384.54 161.50 383.82 158.98 383.02 C 158.07 382.61 157.18 382.18 156.29 381.76 C 155.87 378.19 155.37 374.62 155.33 371.03 C 155.12 361.33 157.65 351.86 157.99 342.20 C 146.90 342.04 135.81 342.25 124.72 341.89 C 123.74 341.89 122.76 341.91 121.78 341.95 C 115.84 342.17 109.86 342.38 103.92 341.86 C 101.47 341.68 99.29 340.47 97.24 339.22 C 94.83 335.72 93.94 331.51 93.77 327.32 C 93.69 326.18 93.62 325.04 93.56 323.90 Z" fill="#fefefe" opacity="1.00" stroke="#fefefe" stroke-width="0.25"/>
<path d="M 359.87 324.45 C 361.53 324.37 363.19 324.32 364.86 324.27 C 365.10 326.89 365.28 329.52 365.73 332.13 C 366.84 336.17 370.43 338.73 374.05 340.39 C 378.08 342.22 381.67 345.04 385.97 346.27 C 389.98 346.89 394.08 346.57 398.12 346.32 C 391.41 347.11 384.63 346.58 377.88 346.79 C 377.31 346.78 376.17 346.76 375.60 346.75 C 364.51 346.73 353.42 346.49 342.33 346.70 C 342.15 346.18 341.78 345.12 341.60 344.60 C 338.95 344.54 336.31 344.42 333.68 344.28 C 334.46 360.51 334.97 376.76 335.83 392.99 C 336.08 396.88 335.08 400.68 334.33 404.46 C 327.55 404.55 320.76 404.51 313.98 404.50 C 313.25 404.49 311.78 404.49 311.05 404.49 C 311.17 404.03 311.42 403.11 311.54 402.65 C 313.01 401.97 314.49 401.30 315.97 400.64 C 313.81 400.47 311.64 400.33 309.50 400.04 C 306.29 399.35 303.17 398.35 300.02 397.47 C 303.32 394.52 307.78 393.89 311.79 392.45 C 312.48 391.12 312.58 389.57 312.83 388.13 C 314.95 370.68 317.55 353.29 319.43 335.81 C 319.75 333.37 320.02 330.64 321.90 328.84 C 323.73 326.90 326.56 326.62 329.08 326.42 C 339.34 325.80 349.61 325.15 359.87 324.45 Z" fill="#143c81" opacity="1.00" stroke="#143c81" stroke-width="0.25"/>
<path d="M 451.23 334.77 C 452.60 338.11 452.84 341.76 453.85 345.22 C 454.85 348.22 456.26 351.08 457.43 354.03 C 458.56 350.96 459.86 347.96 461.31 345.03 C 461.96 344.93 463.25 344.73 463.90 344.64 C 462.02 347.92 460.00 351.19 458.96 354.86 C 457.99 358.14 458.27 361.62 457.62 364.96 C 457.21 365.34 456.40 366.10 455.99 366.48 C 456.04 362.98 456.11 359.46 455.72 355.98 C 455.26 351.96 453.05 348.47 451.42 344.86 C 452.06 341.51 451.95 338.08 451.23 334.77 Z" fill="#65adc3" opacity="1.00" stroke="#65adc3" stroke-width="0.25"/>
<path d="M 88.17 340.31 C 91.20 340.02 94.23 339.66 97.24 339.22 C 99.29 340.47 101.47 341.68 103.92 341.86 C 109.86 342.38 115.84 342.17 121.78 341.95 C 118.96 358.43 114.52 374.59 111.30 390.99 C 110.13 395.69 108.59 400.35 108.49 405.25 C 109.44 405.34 110.38 405.44 111.34 405.54 C 114.34 390.98 117.58 376.47 120.72 361.95 C 122.09 355.27 124.39 348.75 124.72 341.89 C 135.81 342.25 146.90 342.04 157.99 342.20 C 157.65 351.86 155.12 361.33 155.33 371.03 C 155.37 374.62 155.87 378.19 156.29 381.76 C 157.18 382.18 158.07 382.61 158.98 383.02 C 158.42 382.88 157.31 382.62 156.75 382.48 C 155.96 386.81 155.49 391.19 154.47 395.47 C 157.38 399.82 162.57 401.48 166.89 404.02 C 163.58 405.93 159.87 406.90 156.11 407.47 C 157.36 407.78 158.61 408.09 159.87 408.41 C 160.15 442.94 159.92 477.47 160.00 512.00 L 71.94 512.00 C 72.01 509.41 72.07 506.82 72.14 504.24 C 74.73 504.07 77.32 503.93 79.91 503.78 C 80.26 474.85 79.78 445.90 80.11 416.97 C 80.21 413.50 79.88 410.03 79.27 406.62 C 77.61 407.17 75.96 407.73 74.31 408.30 C 75.99 405.80 77.82 403.20 77.95 400.07 C 78.65 392.17 80.47 384.42 82.72 376.83 C 83.42 374.96 82.89 372.87 81.63 371.38 C 76.07 370.53 70.38 370.79 64.89 369.38 C 70.66 368.59 76.66 368.28 82.36 369.69 C 83.77 371.55 84.20 373.94 85.06 376.08 C 84.97 373.49 84.59 370.91 83.62 368.50 C 85.03 368.15 87.67 369.07 87.73 366.91 C 88.47 358.07 87.55 349.17 88.17 340.31 Z" fill="#dde5f3" opacity="1.00" stroke="#dde5f3" stroke-width="0.25"/>
<path d="M 121.78 341.95 C 122.76 341.91 123.74 341.89 124.72 341.89 C 124.39 348.75 122.09 355.27 120.72 361.95 C 117.58 376.47 114.34 390.98 111.34 405.54 C 110.38 405.44 109.44 405.34 108.49 405.25 C 108.59 400.35 110.13 395.69 111.30 390.99 C 114.52 374.59 118.96 358.43 121.78 341.95 Z" fill="#e2d96f" opacity="1.00" stroke="#e2d96f" stroke-width="0.25"/>
<path d="M 333.68 344.28 C 336.31 344.42 338.95 344.54 341.60 344.60 C 341.78 345.12 342.15 346.18 342.33 346.70 C 353.42 346.49 364.51 346.73 375.60 346.75 C 375.23 354.49 378.91 361.55 379.81 369.12 C 381.71 378.44 384.17 387.64 385.88 397.00 C 386.42 400.38 387.37 403.68 388.75 406.82 C 389.27 406.36 389.80 405.91 390.33 405.46 C 391.98 406.19 393.63 406.90 395.30 407.61 C 395.31 408.32 395.33 409.04 395.35 409.76 C 395.78 410.18 396.63 411.01 397.06 411.42 C 397.55 410.10 398.05 408.79 398.55 407.48 C 404.39 408.49 410.22 406.74 416.08 407.29 C 414.05 407.68 412.02 408.06 409.99 408.42 C 410.05 415.29 411.76 422.12 410.87 429.00 C 410.58 430.94 408.99 432.32 408.20 434.07 C 407.89 435.52 407.97 437.02 407.94 438.50 C 409.11 439.84 411.00 440.97 410.91 443.00 C 411.28 446.93 411.00 450.89 410.94 454.84 C 409.95 455.61 408.95 456.38 407.96 457.15 C 407.89 470.09 408.08 483.02 407.95 495.96 C 405.37 495.96 402.79 495.96 400.21 495.96 C 400.06 493.30 399.93 490.64 399.78 487.99 C 397.23 488.01 394.68 488.04 392.14 488.08 C 391.92 493.30 391.90 498.54 392.15 503.77 C 394.69 503.94 397.23 504.09 399.78 504.27 C 399.90 506.84 400.02 509.42 400.15 512.00 L 339.00 512.00 C 338.95 482.32 339.06 452.63 338.91 422.95 C 338.89 417.91 341.14 413.23 341.46 408.22 C 345.07 408.16 348.68 407.95 352.26 407.44 C 345.84 406.93 339.20 406.35 332.86 407.76 C 332.20 409.46 331.82 411.25 331.36 413.02 C 329.74 411.16 328.20 409.22 326.73 407.24 C 322.32 407.88 317.85 408.12 313.40 407.98 C 313.59 406.81 313.78 405.65 313.98 404.50 C 320.76 404.51 327.55 404.55 334.33 404.46 C 335.08 400.68 336.08 396.88 335.83 392.99 C 334.97 376.76 334.46 360.51 333.68 344.28 Z" fill="#c4d2f1" opacity="1.00" stroke="#c4d2f1" stroke-width="0.25"/>
<path d="M 375.60 346.75 C 376.17 346.76 377.31 346.78 377.88 346.79 C 379.84 352.36 380.70 358.22 382.04 363.95 C 383.74 372.72 386.05 381.36 387.75 390.13 C 388.66 395.23 390.87 400.16 390.33 405.46 C 389.80 405.91 389.27 406.36 388.75 406.82 C 387.37 403.68 386.42 400.38 385.88 397.00 C 384.17 387.64 381.71 378.44 379.81 369.12 C 378.91 361.55 375.23 354.49 375.60 346.75 Z" fill="#e0d675" opacity="1.00" stroke="#e0d675" stroke-width="0.25"/>
<path d="M 438.42 374.25 C 438.40 371.65 438.38 369.05 438.38 366.45 C 444.24 366.40 450.09 366.36 455.95 366.52 C 461.56 366.37 467.18 366.38 472.80 366.42 C 472.98 379.64 468.27 392.26 467.24 405.37 C 459.40 405.27 451.45 406.11 443.75 404.21 C 443.89 393.33 439.13 383.01 439.44 372.09 C 439.10 372.81 438.76 373.53 438.42 374.25 Z" fill="#fcb10b" opacity="1.00" stroke="#fcb10b" stroke-width="0.25"/>
<path d="M 46.17 373.60 C 48.03 372.87 50.03 372.74 52.00 372.76 C 61.55 372.80 71.09 372.78 80.64 372.77 C 78.89 383.71 76.93 394.65 74.48 405.45 C 66.85 405.04 59.13 406.12 51.58 404.77 C 50.62 395.19 47.53 385.83 48.17 376.11 C 47.67 375.48 46.67 374.23 46.17 373.60 Z" fill="#2174f0" opacity="1.00" stroke="#2174f0" stroke-width="0.25"/>
<path d="M 154.47 395.47 C 155.49 391.19 155.96 386.81 156.75 382.48 C 157.31 382.62 158.42 382.88 158.98 383.02 C 161.50 383.82 164.04 384.54 166.60 385.21 C 166.21 387.80 165.97 390.59 167.51 392.88 C 166.82 392.96 165.43 393.12 164.74 393.21 C 165.57 394.55 166.41 395.88 167.30 397.19 C 167.52 397.53 167.96 398.20 168.19 398.54 C 168.68 398.43 169.68 398.21 170.18 398.10 C 170.59 400.32 171.84 402.64 170.92 404.89 C 169.54 404.76 168.19 404.45 166.89 404.02 C 162.57 401.48 157.38 399.82 154.47 395.47 Z" fill="#13387e" opacity="1.00" stroke="#13387e" stroke-width="0.25"/>
<path d="M 171.51 384.17 C 174.89 383.72 178.27 383.16 181.67 382.88 C 182.07 383.12 182.87 383.61 183.27 383.85 C 187.48 386.73 192.57 388.39 196.07 392.23 C 192.51 394.49 188.07 394.45 184.11 395.60 C 181.26 395.96 178.07 397.47 175.34 396.47 C 172.72 392.97 172.87 388.22 171.51 384.17 Z" fill="#14397d" opacity="1.00" stroke="#14397d" stroke-width="0.25"/>
<path d="M 164.74 393.21 C 165.43 393.12 166.82 392.96 167.51 392.88 C 168.34 394.32 169.16 395.77 169.98 397.24 C 169.31 397.23 167.97 397.21 167.30 397.19 C 166.41 395.88 165.57 394.55 164.74 393.21 Z" fill="#6987bd" opacity="1.00" stroke="#6987bd" stroke-width="0.25"/>
<path d="M 309.50 400.04 C 311.64 400.33 313.81 400.47 315.97 400.64 C 314.49 401.30 313.01 401.97 311.54 402.65 C 311.42 403.11 311.17 404.03 311.05 404.49 C 311.78 404.49 313.25 404.49 313.98 404.50 C 313.78 405.65 313.59 406.81 313.40 407.98 C 317.85 408.12 322.32 407.88 326.73 407.24 C 328.20 409.22 329.74 411.16 331.36 413.02 C 331.82 411.25 332.20 409.46 332.86 407.76 C 339.20 406.35 345.84 406.93 352.26 407.44 C 348.68 407.95 345.07 408.16 341.46 408.22 C 341.14 413.23 338.89 417.91 338.91 422.95 C 339.06 452.63 338.95 482.32 339.00 512.00 L 293.00 512.00 C 292.81 483.32 293.07 454.65 292.89 425.97 C 293.02 422.75 292.16 419.05 294.31 416.30 C 296.47 413.78 296.02 410.32 296.22 407.25 C 299.16 407.04 302.10 406.80 305.04 406.54 C 301.64 406.34 298.23 406.00 294.96 404.99 C 298.43 403.85 302.10 404.03 305.66 403.51 C 307.29 402.85 308.26 401.21 309.50 400.04 Z" fill="#c9d7f1" opacity="1.00" stroke="#c9d7f1" stroke-width="0.25"/>
</svg>